<svg width="88" height="24" viewBox="0 0 88 24" fill="none" xmlns="http://www.w3.org/2000/svg">
<path d="M18.0519 3.08567L6.48732 17.748C5.34389 19.212 3.62275 20.0502 1.76446 20.0502H0.679321V23.4857H1.76104C4.76275 23.4857 7.54332 22.1331 9.37932 19.7777L11.6696 16.9697H22.2793V23.6554H25.8793V0.171387H24.0416C21.6793 0.171387 19.4936 1.23596 18.0519 3.08567ZM14.5102 13.3714L20.9439 5.21139C21.2902 4.76567 21.7993 4.36971 22.2793 4.11429V13.3714H14.5085H14.5102Z" fill="white"/>
<path d="M32.7365 6.85718H29.1365V23.6572H32.7365V6.85718Z" fill="white"/>
<path fill-rule="evenodd" clip-rule="evenodd" d="M57.9365 15.1167C57.9365 9.72526 61.5931 6.5144 66.4377 6.5144C71.7828 6.5144 74.908 10.2533 74.908 15.1167C74.908 20.6967 71.3782 24.0001 66.4377 24.0001C61.0617 24.0001 57.9365 20.227 57.9365 15.1167ZM66.4384 20.9144C63.7302 20.9144 61.708 18.7718 61.708 15.116C61.708 11.8085 63.5732 9.60012 66.4384 9.60012C69.3037 9.60012 71.1365 11.8051 71.1365 15.116C71.1365 18.4269 69.3925 20.9144 66.4384 20.9144Z" fill="white"/>
<path d="M80.7365 6.85718H77.1365V23.6572H80.7365V6.85718Z" fill="white"/>
<path d="M87.5937 0.171387H83.9937V23.6571H87.5937V0.171387Z" fill="white"/>
<path d="M48.8508 5.01767V6.8571H45.1822C42.3588 6.8571 40.6822 7.83424 39.5937 10.1142V6.8571H35.9937V23.6571H39.5937V15.3205C39.5937 12.1542 41.6782 10.2857 45.2079 10.2857H48.8508V23.6571H52.4508V10.2857H57.4222V6.8571H52.4508V5.20624C52.4508 3.94624 53.1091 3.2571 54.3022 3.2571H57.7651V0.171387H54.1565C50.7039 0.171387 48.8508 1.86853 48.8508 5.01767Z" fill="white"/>
<ellipse cx="78.8508" cy="2.4" rx="2.4" ry="2.4" fill="white"/>
<ellipse cx="30.8508" cy="2.4" rx="2.4" ry="2.4" fill="white"/>
</svg>
