<?xml version="1.0" encoding="UTF-8"?> <svg xmlns="http://www.w3.org/2000/svg" width="148" height="32" viewBox="0 0 148 32" fill="none"><path d="M16.1847 8.99893H14.7386L11.4155 1.30667L12.8309 0.691284L15.4463 6.75279L18.0616 0.691284L19.5078 1.30667L16.1847 8.99893Z" fill="white"></path><path d="M18.0614 31.4602L15.446 25.4294L12.8307 31.4602L11.4153 30.8448L14.7383 23.1525H16.1845L19.5075 30.8448L18.0614 31.4602Z" fill="white"></path><path d="M9.93863 11.5836L2.15405 8.50674L2.73867 7.06059L8.86171 9.46058L6.43095 3.3683L7.8771 2.78369L10.954 10.5683L9.93863 11.5836Z" fill="#FF8A8A"></path><path d="M23.0464 29.3681L19.9695 21.5835L20.9849 20.5989L28.7694 23.6758L28.1848 25.122L22.0618 22.6912L24.4925 28.8143L23.0464 29.3681Z" fill="#FF8A8A"></path><path d="M0.707911 20.1066L0.0925293 18.6913L6.12327 16.0759L0.0925293 13.4605L0.707911 12.0451L8.36941 15.3682V16.7836L0.707911 20.1066Z" fill="white"></path><path d="M30.2152 20.1066L22.5537 16.7835V15.3682L30.2152 12.0451L30.8306 13.4605L24.7999 16.0759L30.8306 18.6912L30.2152 20.1066Z" fill="white"></path><path d="M7.8771 29.3681L6.43095 28.8143L8.86171 22.6912L2.73867 25.122L2.15405 23.6758L9.93863 20.5989L10.954 21.5835L7.8771 29.3681Z" fill="#FF8A8A"></path><path d="M20.9849 11.5836L19.9695 10.5683L23.0464 2.78369L24.4925 3.3683L22.0618 9.46058L28.1848 7.06059L28.7694 8.50674L20.9849 11.5836Z" fill="#FF8A8A"></path><path d="M47.3848 13.7682C48.5848 14.9989 49.1694 16.5374 49.1694 18.322C49.1694 20.1066 48.5848 21.645 47.3848 22.8758C46.1848 24.1066 44.7694 24.722 43.0771 24.722C41.2309 24.722 39.8156 24.045 38.8002 22.6604V24.4143H36.1541V8.41435L38.8002 7.33743V13.9528C39.8156 12.5989 41.2309 11.8913 43.0771 11.8913C44.7694 11.922 46.1848 12.5066 47.3848 13.7682ZM42.6771 22.2297C43.7848 22.2297 44.7079 21.8604 45.4463 21.122C46.1848 20.3527 46.554 19.4297 46.554 18.322C46.554 17.2143 46.1848 16.2605 45.4463 15.5528C44.7079 14.7835 43.7848 14.4451 42.6771 14.4451C41.5694 14.4451 40.6463 14.8143 39.9079 15.5528C39.1694 16.2912 38.8002 17.2143 38.8002 18.322C38.8002 19.4297 39.1694 20.3835 39.9079 21.122C40.6463 21.8604 41.5694 22.2297 42.6771 22.2297Z" fill="white"></path><path d="M53.0153 19.4604C53.4153 21.3065 54.8922 22.3527 56.923 22.3527C58.3076 22.3527 59.3537 21.8296 60.0614 20.845L62.246 22.1065C61.046 23.8911 59.2614 24.7527 56.8922 24.7527C54.923 24.7527 53.2922 24.1373 52.0922 22.9373C50.8615 21.7065 50.2769 20.1681 50.2769 18.3219C50.2769 16.5066 50.8922 14.9681 52.0922 13.7681C53.2922 12.5373 54.8614 11.922 56.7384 11.922C58.523 11.922 59.9691 12.5681 61.1383 13.7989C62.2768 15.0296 62.8614 16.5681 62.8614 18.3527C62.8614 18.6296 62.8306 18.9989 62.7691 19.4604H53.0153ZM60.1845 17.3066C59.8153 15.3373 58.4307 14.2912 56.7076 14.2912C54.7691 14.2912 53.3845 15.4296 53.0153 17.3066H60.1845Z" fill="white"></path><path d="M70.9538 14.5681H67.9384V20.6296C67.9384 22.1988 68.9538 22.168 70.9538 22.0757V24.4449C66.923 24.9372 65.2923 23.8296 65.2923 20.6296V14.5681H63.0461V12.045H65.2923V9.4604L67.9384 8.38348V12.045H70.9538V14.5681Z" fill="white"></path><path d="M73.323 9.42964L75.9691 8.35272V12.0142H78.9845V14.5373H75.9691V20.5988C75.9691 22.168 76.9845 22.1373 78.9845 22.045V24.4142C74.9538 24.9065 73.323 23.7988 73.323 20.5988V9.42964Z" fill="white"></path><path d="M82.3383 19.4604C82.7383 21.3065 84.2152 22.3527 86.246 22.3527C87.6306 22.3527 88.6767 21.8296 89.3844 20.845L91.569 22.1065C90.369 23.8911 88.5844 24.7527 86.2152 24.7527C84.246 24.7527 82.6152 24.1373 81.4152 22.9373C80.1845 21.7065 79.5999 20.1681 79.5999 18.3219C79.5999 16.5066 80.2152 14.9681 81.4152 13.7681C82.6152 12.5373 84.1844 11.922 86.0614 11.922C87.846 11.922 89.2921 12.5681 90.4613 13.7989C91.5998 15.0296 92.1844 16.5681 92.1844 18.3527C92.1844 18.6296 92.1536 18.9989 92.0921 19.4604H82.3383ZM89.5075 17.3066C89.1383 15.3373 87.7537 14.2912 86.0306 14.2912C84.0921 14.2912 82.7075 15.4296 82.3383 17.3066H89.5075Z" fill="white"></path><path d="M96.4921 14.2913C97.1382 12.7836 98.4305 12.0143 100.246 12.0143V14.8759C99.2305 14.8143 98.369 15.0605 97.5998 15.6143C96.8305 16.1374 96.4921 17.0605 96.4921 18.2912V24.445H93.8459V12.2297H96.4921V14.2913Z" fill="white"></path><path d="M101.6 24.4142V8.35277L104.246 7.27585V24.4142H101.6Z" fill="white"></path><path d="M108.738 19.4604C109.138 21.3065 110.615 22.3527 112.646 22.3527C114.03 22.3527 115.077 21.8296 115.784 20.845L117.969 22.1065C116.769 23.8911 114.984 24.7527 112.615 24.7527C110.646 24.7527 109.015 24.1373 107.815 22.9373C106.584 21.7065 106 20.1681 106 18.3219C106 16.5066 106.615 14.9681 107.815 13.7681C109.015 12.5373 110.584 11.922 112.461 11.922C114.246 11.922 115.692 12.5681 116.861 13.7989C118 15.0296 118.584 16.5681 118.584 18.3527C118.584 18.6296 118.554 18.9989 118.492 19.4604H108.738ZM115.907 17.3066C115.538 15.3373 114.154 14.2912 112.43 14.2912C110.492 14.2912 109.107 15.4296 108.738 17.3066H115.907Z" fill="white"></path><path d="M129.846 12.2297H132.492V24.4142H129.846V22.6604C128.831 24.045 127.415 24.7219 125.569 24.7219C123.877 24.7219 122.461 24.1065 121.261 22.8758C120.061 21.645 119.477 20.1065 119.477 18.3219C119.477 16.5066 120.061 14.9989 121.261 13.7681C122.461 12.5373 123.877 11.922 125.569 11.922C127.415 11.922 128.831 12.5989 129.846 13.9835V12.2297ZM126 22.2296C127.108 22.2296 128.031 21.8604 128.769 21.1219C129.508 20.3527 129.877 19.4296 129.877 18.3219C129.877 17.2142 129.508 16.2604 128.769 15.5527C128.031 14.7835 127.108 14.445 126 14.445C124.892 14.445 123.969 14.8143 123.231 15.5527C122.492 16.2912 122.123 17.2142 122.123 18.3219C122.123 19.4296 122.492 20.3835 123.231 21.1219C123.969 21.8604 124.892 22.2296 126 22.2296Z" fill="white"></path><path d="M146.154 13.7989C147.354 15.0296 147.938 16.5681 147.938 18.3219C147.938 20.1373 147.354 21.645 146.154 22.8758C144.954 24.1065 143.538 24.7219 141.846 24.7219C140 24.7219 138.584 24.045 137.569 22.6604V29.2757H134.923V12.2297H137.569V13.9835C138.584 12.5989 140 11.922 141.846 11.922C143.538 11.922 144.954 12.5373 146.154 13.7989ZM141.446 22.2296C142.554 22.2296 143.477 21.8604 144.215 21.1219C144.954 20.3527 145.323 19.4296 145.323 18.3219C145.323 17.2142 144.954 16.2604 144.215 15.5527C143.477 14.7835 142.554 14.445 141.446 14.445C140.338 14.445 139.415 14.8143 138.677 15.5527C137.938 16.2912 137.569 17.2142 137.569 18.3219C137.569 19.4296 137.938 20.3835 138.677 21.1219C139.415 21.8604 140.338 22.2296 141.446 22.2296Z" fill="white"></path></svg> 