<svg width="82" height="26" viewBox="0 0 82 26" fill="none" xmlns="http://www.w3.org/2000/svg">
<g clip-path="url(#clip0_268_3188)">
<path d="M7.16505 7.1537H22.3908C22.3908 3.20683 19.1566 0.0493359 15.2257 0H0C0 3.94687 3.23422 7.1537 7.16505 7.1537Z" fill="white"/>
<path d="M0 16.1327V25.9999H0.0497573C4.32888 25.9999 7.81189 22.4971 7.81189 18.2542V16.1821H9.10558C13.0862 16.1821 16.3204 12.9752 16.3204 9.02832H7.21481C3.23422 9.02832 0 12.1859 0 16.1327Z" fill="white"/>
<path d="M39.1094 11.0514V24.2735H36.0742V11.9395H32.1434V24.2735H29.1082V11.9395H27.3667V9.32473H29.1082V7.59798C29.1082 4.83517 30.7999 3.05908 33.4868 3.05908H38.9103V5.67388H33.437C32.6907 5.67388 32.1434 6.36458 32.1434 7.54864V9.32473H37.3679C38.3133 9.32473 39.1094 10.1141 39.1094 11.0514Z" fill="white"/>
<path d="M40.1045 9.32437H43.0899V11.4952H43.1397C43.886 10.2618 45.2792 8.92969 47.7173 8.92969C51.0013 8.92969 53.0414 11.2485 53.0414 14.8993V24.3225H50.0062V15.0967C50.0062 12.5312 48.6627 11.5445 46.9212 11.5445C44.8314 11.5445 43.1397 13.0246 43.1397 15.8367V24.2731H40.1045V9.32437Z" fill="white"/>
<path d="M53.7378 16.7741C53.7378 12.1365 56.574 8.88037 61.3009 8.88037C65.6298 8.88037 68.0181 11.6432 68.3664 15.0474H65.2317C65.0825 13.1233 63.739 11.4952 61.3009 11.4952C58.5642 11.4952 56.8725 13.7153 56.8725 16.8234C56.8725 20.1289 58.813 22.2011 61.3009 22.2011C63.6892 22.2011 64.9829 20.425 65.2317 18.9449H68.3664C67.9684 22.0037 65.5303 24.8159 61.3009 24.8159C56.773 24.7172 53.7378 21.5597 53.7378 16.7741Z" fill="white"/>
<path d="M69.063 2.51611H72.0982V9.27513C72.0982 9.96583 72.0982 10.4592 72.0484 11.4952H72.0982C72.8446 10.2618 74.2378 8.92978 76.6759 8.92978C79.9599 8.92978 81.9999 11.2486 81.9999 14.8994V24.3226H78.9647V15.0968C78.9647 12.5313 77.6213 11.5446 75.8798 11.5446C73.7899 11.5446 72.0982 13.0247 72.0982 15.8368V24.2732H69.063V2.51611Z" fill="white"/>
</g>
<defs>
<clipPath id="clip0_268_3188">
<rect width="82" height="26" fill="white"/>
</clipPath>
</defs>
</svg>
