<svg width="19" height="17" viewBox="0 0 19 17" fill="none" xmlns="http://www.w3.org/2000/svg">
<g clip-path="url(#clip0_200_378)">
<path d="M8.65527 16.3334H10.254V14.7346H8.65527V16.3334Z" fill="#232325"/>
<path d="M7.22949 14.737H11.6825V13.1382H7.22949V14.737Z" fill="#232325"/>
<path d="M7.91391 0.51709H3.46094V2.11587H7.91391V0.51709Z" fill="#232325"/>
<path d="M0.607422 3.80347V8.25644H2.2062V3.80347H0.607422Z" fill="#232325"/>
<path d="M16.7197 3.80298V8.25595H18.3185V3.80298H16.7197Z" fill="#232325"/>
<path d="M15.4832 0.51709H11.0303V2.11587H15.4832V0.51709Z" fill="#232325"/>
<path d="M5.24121 13.1393H13.67V11.5405H5.24121V13.1393Z" fill="#232325"/>
<path d="M3.75684 11.5434H15.1525V9.94458H3.75684V11.5434Z" fill="#232325"/>
<path d="M10.2547 2.11401V3.67581H8.65596V2.11401H2.19043V9.94414H16.7185V2.11401H10.2547Z" fill="#232325"/>
</g>
<defs>
<clipPath id="clip0_200_378">
<rect width="18" height="16" fill="white" transform="translate(0.5 0.5)"/>
</clipPath>
</defs>
</svg>
