<svg width="2290" height="666" viewBox="0 0 2290 666" fill="none" xmlns="http://www.w3.org/2000/svg">
<path fill-rule="evenodd" clip-rule="evenodd" d="M307 2.602C305.075 2.824 299 3.476 293.5 4.051C27.168 31.882 -95.671 361.044 86.774 558C283.681 770.569 637.774 649.83 663.053 361.5C680.586 161.514 500.744 -19.766 307 2.602ZM368.053 80.952C575.225 113.056 660.605 362.484 515.552 511.851C392.123 638.952 180.535 605.477 102.481 446.5C22.046 282.675 131.415 94.22 316 78.582C326.078 77.728 356.061 79.093 368.053 80.952ZM330.007 154.132C317.008 156.792 314.564 202.47 327.062 209.173C330.901 211.232 464 212.097 464 210.063C464 206.013 429.011 180.207 412.776 172.283C386.24 159.331 346.834 150.689 330.007 154.132ZM967.443 191.935C853.636 211.98 808.348 351.685 888.861 434.342C977.242 525.074 1130.88 465.412 1135.67 338.5C1139.08 248.159 1056.54 176.243 967.443 191.935ZM1459.92 192.581L1457.5 195.161V334.167V473.173L1460.31 475.587L1463.11 478H1498.52C1563.82 478 1592.3 469.064 1624.95 438.333C1698.08 369.485 1679.8 249.958 1589.19 204.566C1565.15 192.523 1549.93 190.042 1499.92 190.018L1462.35 190L1459.92 192.581ZM2129.5 204.208C2124.89 206.854 2125.07 201.403 2125.03 340.168C2124.99 496.023 2122.51 478 2144.02 478C2164.34 478 2162.93 481.35 2162.97 432.953L2163 393.406L2166.87 389.625L2170.74 385.845L2207.4 430.172C2227.57 454.553 2245.29 475.285 2246.78 476.245C2250.96 478.929 2284.91 478.868 2287.35 476.171C2291.26 471.847 2295.42 477.618 2235.64 404.506L2198.03 358.512L2232.51 323.973C2268.53 287.905 2269.14 287.136 2265 283C2263.14 281.136 2261.67 281 2243.43 281H2223.85L2217.7 286.75C2214.32 289.913 2200.74 303.044 2187.53 315.932L2163.5 339.363L2163 273.932C2162.47 204.782 2162.54 205.733 2157.77 204.07C2153.65 202.633 2132.06 202.738 2129.5 204.208ZM329.209 229.984C316.003 233.113 313.421 278.394 326.062 285.173C329.848 287.203 507 288.108 507 286.097C507 279.348 492.27 247.587 482.258 232.75L479.728 229L406.114 229.102C365.626 229.159 331.019 229.556 329.209 229.984ZM1020.4 232.42C1129.01 264.859 1118.69 421.575 1006.86 438.019C924.782 450.088 861.547 364.945 896.464 289.372C917.605 243.614 972.863 218.222 1020.4 232.42ZM1547 233.542C1647.44 255.4 1662.16 391.734 1568.3 430.845C1553.45 437.032 1546.09 438.242 1520.25 438.739L1496 439.205V334.957V230.709L1517.75 231.309C1532.02 231.704 1542.08 232.471 1547 233.542ZM1175.62 278.288L1173.33 280.577L1172.67 337.953C1171.36 450.832 1171.87 472.854 1175.87 476.098C1179.88 479.345 1204.71 478.924 1208.35 475.548L1211 473.095L1211.02 416.298C1211.05 343.912 1211.3 342.24 1224.22 328.428C1245.83 305.318 1283.51 311.634 1297.27 340.675L1300.5 347.5L1301 410.337L1301.5 473.175L1304.31 475.587C1308.85 479.49 1333.44 479.289 1337.41 475.317L1340.09 472.633L1339.74 408.067C1339.35 337.174 1339.57 339.822 1333 325.349C1313.39 282.087 1259.75 263.192 1218.27 284.93L1211 288.74V284.824C1211 276.061 1183.02 270.891 1175.62 278.288ZM1780.16 277.062C1722.52 287.283 1687.44 348.037 1704.65 407.853C1724.55 477.029 1810.56 501.255 1862.18 452.222C1872.13 442.77 1871.89 440.55 1859.5 427.931C1846.61 414.795 1846.78 414.813 1834.37 425.309C1788.73 463.904 1723.52 416.366 1741.36 357.5C1756.78 306.606 1821.96 299.116 1847.95 345.25L1851.19 351H1805.65H1760.11L1757.31 353.413C1753.01 357.105 1752.99 374.445 1757.27 378.727L1760.04 381.5L1822.27 381.805C1900.56 382.189 1896.41 383.212 1894.01 364.135C1886.87 307.416 1834.57 267.416 1780.16 277.062ZM1997.16 277.121C1934.99 287.46 1899.67 358.292 1925.93 419.999C1951.51 480.116 2030.2 497.113 2078.4 452.935C2089.21 443.029 2089 440.668 2076.2 427.666C2063.93 415.206 2062.3 414.898 2053.56 423.391C2021.11 454.925 1967.03 437.251 1957.39 391.965C1944.58 331.769 2009 290.132 2053.21 330.033C2062.82 338.707 2064.03 338.531 2075.73 326.75C2089.31 313.07 2089.46 311.432 2078.18 300.894C2057.13 281.237 2026.49 272.245 1997.16 277.121ZM327.5 306.861C320.546 311.156 320.528 311.221 320.221 332.852C319.91 354.837 320.409 356.84 327.241 361.005C332.044 363.934 510.496 364.162 511.423 361.242C513.635 354.272 513.635 313.728 511.423 306.758C510.533 303.952 332.049 304.051 327.5 306.861ZM327.5 382.861C320.546 387.156 320.528 387.221 320.221 408.852C319.752 441.983 311.319 438.992 405.202 438.996L479.904 439L482.803 434.75C492.381 420.711 507 388.772 507 381.886C507 379.867 330.799 380.823 327.5 382.861ZM326.984 458.835C317.04 464.071 316.378 505.141 326.124 512.28C338.371 521.252 398.329 506.305 429.5 486.509C440.664 479.419 464 460.063 464 457.894C464 455.894 330.832 456.809 326.984 458.835Z" fill="white"/>
</svg>
