<svg width="46" height="48" viewBox="0 0 46 48" fill="none" xmlns="http://www.w3.org/2000/svg">
<g clip-path="url(#clip0_169_634)">
<path fill-rule="evenodd" clip-rule="evenodd" d="M25.2781 0.227539H20.7231V13.9418H25.2781V0.227539ZM25.2781 32.2275H20.7231V45.9418H25.2781V32.2275ZM45.7759 20.7989V25.3704H32.1105V20.7989H45.7759ZM13.8899 25.3704V20.7989H0.224609V25.3704H13.8899ZM29.8328 11.656H34.3879V16.2275H29.8328V11.656ZM38.9427 7.08462H34.3876V11.656H38.9427V7.08462ZM16.1675 11.656H11.6124V16.2275H16.1675V11.656ZM7.05747 7.08462H11.6126V11.656H7.05747V7.08462ZM29.8328 34.5132H34.3876V39.0844H38.9427V34.513H34.3879V29.9418H29.8328V34.5132ZM11.6124 34.513V29.9418H16.1675V34.5132H11.6126V39.0844H7.05747V34.513H11.6124Z" fill="black" fill-opacity="0.75"/>
</g>
<defs>
<clipPath id="clip0_169_634">
<rect width="45.551" height="48" fill="white" transform="translate(0.224609)"/>
</clipPath>
</defs>
</svg>
