<?xml version="1.0" encoding="utf-8"?>
<!-- Generator: Adobe Illustrator 26.5.0, SVG Export Plug-In . SVG Version: 6.00 Build 0)  -->
<svg version="1.1" id="Layer_1" xmlns="http://www.w3.org/2000/svg" xmlns:xlink="http://www.w3.org/1999/xlink" x="0px" y="0px"
	 viewBox="0 0 1167.1 905.4" style="enable-background:new 0 0 1167.1 905.4;" xml:space="preserve">
<style type="text/css">
	.st0{opacity:0.4;}
	.st1{fill:none;stroke:#232325;stroke-width:2;stroke-miterlimit:10;}
	.st2{fill-rule:evenodd;clip-rule:evenodd;fill:#232325;}
	.st3{fill:none;stroke:url(#SVGID_1_);stroke-width:2;stroke-miterlimit:10;}
	.st4{fill-rule:evenodd;clip-rule:evenodd;fill:url(#SVGID_00000009564381151356248510000018146826689323842735_);}
	.st5{fill:none;stroke:url(#SVGID_00000174578840138656750940000006749058851865579451_);stroke-width:2;stroke-miterlimit:10;}
	.st6{fill-rule:evenodd;clip-rule:evenodd;fill:url(#SVGID_00000037667712178903099840000007327167835277934231_);}
	.st7{fill-rule:evenodd;clip-rule:evenodd;fill:url(#SVGID_00000156580640224255181770000017474540086920879804_);}
	.st8{fill:none;stroke:url(#SVGID_00000127018536143030887250000001222364968078921612_);stroke-width:2;stroke-miterlimit:10;}
	.st9{fill-rule:evenodd;clip-rule:evenodd;fill:url(#SVGID_00000127034260002566027980000000080374465727804566_);}
	.st10{fill-rule:evenodd;clip-rule:evenodd;fill:url(#SVGID_00000132808054321728251860000009126575284366931604_);}
	.st11{fill:none;stroke:url(#SVGID_00000163066506244933900050000013604251783023603366_);stroke-width:2;stroke-miterlimit:10;}
	.st12{fill:none;stroke:url(#SVGID_00000125597118184059604580000001415099050375672732_);stroke-width:2;stroke-miterlimit:10;}
	.st13{fill:none;stroke:url(#SVGID_00000024698521833647185410000017603379770449663650_);stroke-width:2;stroke-miterlimit:10;}
	.st14{fill:none;stroke:url(#SVGID_00000150061742861160213020000015420264855900055978_);stroke-width:2;stroke-miterlimit:10;}
	.st15{fill:none;stroke:url(#SVGID_00000124868827249032441500000016796654420698182827_);stroke-width:2;stroke-miterlimit:10;}
	.st16{fill:none;stroke:url(#SVGID_00000116932444010013911200000000921407510209773725_);stroke-width:2;stroke-miterlimit:10;}
	.st17{fill:none;stroke:url(#SVGID_00000036242291666943419320000013914644494240595851_);stroke-width:2;stroke-miterlimit:10;}
	.st18{fill:none;stroke:url(#SVGID_00000029744781041482618020000001730202921953682575_);stroke-width:2;stroke-miterlimit:10;}
	.st19{fill:none;stroke:url(#SVGID_00000148621816806218926760000008271222643025992105_);stroke-width:2;stroke-miterlimit:10;}
	.st20{fill:none;stroke:url(#SVGID_00000023973126921701650900000004850588187251032235_);stroke-width:2;stroke-miterlimit:10;}
	.st21{fill:none;stroke:url(#SVGID_00000085211827979579661890000010929730658560737171_);stroke-width:2;stroke-miterlimit:10;}
	.st22{fill:none;stroke:url(#SVGID_00000088125696411228269250000000187623904422100901_);stroke-width:2;stroke-miterlimit:10;}
	.st23{fill-rule:evenodd;clip-rule:evenodd;fill:url(#SVGID_00000013163423664207549280000017121364300728851609_);}
	.st24{fill:none;stroke:url(#SVGID_00000015325548551880392580000016554189531771355524_);stroke-width:2;stroke-miterlimit:10;}
	.st25{fill:none;stroke:url(#SVGID_00000028309854973343437220000015909334197789958327_);stroke-width:2;stroke-miterlimit:10;}
	.st26{fill-rule:evenodd;clip-rule:evenodd;fill:url(#SVGID_00000083081829102258192270000017487179580173130378_);}
	.st27{fill-rule:evenodd;clip-rule:evenodd;fill:url(#SVGID_00000048491413328950283250000012563324977520254348_);}
	.st28{fill:none;stroke:url(#SVGID_00000116199857223896628160000003712758739425951117_);stroke-width:2;stroke-miterlimit:10;}
	.st29{fill:none;stroke:url(#SVGID_00000116211986031440083800000008865770931443777926_);stroke-width:2;stroke-miterlimit:10;}
	.st30{fill:none;stroke:url(#SVGID_00000057107231175378378300000003814292470796559523_);stroke-width:2;stroke-miterlimit:10;}
	.st31{fill:none;stroke:url(#SVGID_00000084490800672739386490000005730146269546147720_);stroke-width:2;stroke-miterlimit:10;}
	.st32{fill:none;stroke:url(#SVGID_00000078003548825013945940000017655103600165026230_);stroke-width:2;stroke-miterlimit:10;}
	.st33{fill:none;stroke:url(#SVGID_00000130612093844113607060000007673187799026192278_);stroke-width:2;stroke-miterlimit:10;}
	.st34{fill-rule:evenodd;clip-rule:evenodd;fill:url(#SVGID_00000159447135699111709020000017160065659918221213_);}
	.st35{fill:none;stroke:url(#SVGID_00000072971451658991515340000006285652727598463377_);stroke-width:2;stroke-miterlimit:10;}
	.st36{fill-rule:evenodd;clip-rule:evenodd;fill:url(#SVGID_00000120557543305011483900000007855588424471785137_);}
	.st37{fill-rule:evenodd;clip-rule:evenodd;fill:url(#SVGID_00000158001703568383703360000005779670808619497113_);}
	.st38{fill:none;stroke:url(#SVGID_00000108269180955810863350000001437031260500794297_);stroke-width:2;stroke-miterlimit:10;}
	.st39{fill:none;stroke:url(#SVGID_00000041996199895696396780000000282375477373088187_);stroke-width:2;stroke-miterlimit:10;}
	.st40{fill:none;stroke:url(#SVGID_00000125601824014384440470000015482413377335946407_);stroke-width:2;stroke-miterlimit:10;}
	.st41{fill:none;stroke:url(#SVGID_00000140007922146579087660000016404631189895722415_);stroke-width:2;stroke-miterlimit:10;}
	.st42{fill:none;stroke:url(#SVGID_00000114759031425644781620000012097668604953113246_);stroke-width:2;stroke-miterlimit:10;}
</style>
<g class="st0">
	<path class="st1" d="M1142.3,827.3H27.4"/>
	<path class="st2" d="M315.4,522.9h-1v1v262.7h2V524.9h7.9v21.8l0,0v4.5v198.6v1h0v35.7h2v-35.7h252.4v-2H326.3v-11.7h252.4v-2
		h-12.9v-21.3c4.3,0.2,8.6,0.3,12.9,0.3v-2c-111.8,0-208.2-66-252.4-161.1v-27.1v-1h-1H315.4z M563.8,735.1v-21.4
		c-7.4-0.4-14.7-1.1-22-2v23.4H563.8z M539.8,735.1v-23.7c-7.4-1-14.7-2.3-22-3.9v27.6H539.8z M515.8,735.1v-28.1
		c-7.4-1.7-14.8-3.7-22-6v34H515.8z M491.9,735.1v-34.7c-7.5-2.4-14.8-5.2-22-8.2v42.9H491.9z M467.9,735.1v-43.7
		c-7.5-3.2-14.8-6.8-21.9-10.6v54.3H467.9z M444,735.1v-55.4c-7.5-4.1-14.9-8.6-22-13.4v68.8H444z M420.1,735.1V665
		c-7.6-5.2-14.9-10.8-22-16.8v86.9H420.1z M396.1,735.1v-88.6c-7.7-6.6-15-13.6-22-21v109.7H396.1z M372.1,735.1V623.3
		c-7.9-8.6-15.2-17.6-21.9-27.1v139H372.1z M348.2,735.1V593.3c-8.2-11.9-15.6-24.5-22-37.6v25v154.5H348.2z"/>
	
		<linearGradient id="SVGID_1_" gradientUnits="userSpaceOnUse" x1="320.3045" y1="276.925" x2="320.3045" y2="266.925" gradientTransform="matrix(1 0 0 -1 0 1086.85)">
		<stop  offset="0" style="stop-color:#232325"/>
		<stop  offset="1" style="stop-color:#232325;stop-opacity:0"/>
	</linearGradient>
	<path class="st3" d="M333.2,823v-36.3h-25.9V823"/>
	
		<linearGradient id="SVGID_00000163784322395123266340000012619605838406982054_" gradientUnits="userSpaceOnUse" x1="181.658" y1="334.9662" x2="162.158" y2="319.9662" gradientTransform="matrix(1 0 0 -1 0 1086.85)">
		<stop  offset="0" style="stop-color:#232325"/>
		<stop  offset="1" style="stop-color:#232325;stop-opacity:0"/>
	</linearGradient>
	<path style="fill-rule:evenodd;clip-rule:evenodd;fill:url(#SVGID_00000163784322395123266340000012619605838406982054_);" d="
		M316.4,546.7v4.5v29.5l0,0v155.4l0,0v13.7v1h-1H150.6v-2h163.8v-11.7H136.7v-2h10v-34c-7.2,2.3-14.5,4.3-22,6v15.5h-2v-15.1
		c-6.1,1.3-12.2,2.5-18.5,3.4l-0.3-2c93.6-14.2,171.9-75.1,210.4-158.2L316.4,546.7z M148.7,735.1h21.9v-42.9
		c-7.2,3-14.5,5.8-21.9,8.2V735.1z M172.7,735.1h22v-54.3c-7.1,3.8-14.5,7.4-22,10.6V735.1z M196.6,735.1h22v-68.8
		c-7.1,4.8-14.4,9.3-22,13.4V735.1z M220.6,735.1h22v-86.9c-7,5.9-14.4,11.5-22,16.8V735.1z M244.5,735.1h21.9V625.5
		c-6.9,7.4-14.3,14.4-21.9,21V735.1z M268.5,735.1h22v-139c-6.8,9.5-14.1,18.6-22,27.1V735.1z M292.4,735.1h22V555.7
		c-6.4,13.2-13.7,25.7-22,37.6V735.1z"/>
	
		<linearGradient id="SVGID_00000174601432261161549580000017421348589275210411_" gradientUnits="userSpaceOnUse" x1="833.304" y1="269.424" x2="833.304" y2="263.924" gradientTransform="matrix(1 0 0 -1 0 1086.85)">
		<stop  offset="0" style="stop-color:#232325"/>
		<stop  offset="1" style="stop-color:#232325;stop-opacity:0"/>
	</linearGradient>
	
		<path style="fill:none;stroke:url(#SVGID_00000174601432261161549580000017421348589275210411_);stroke-width:2;stroke-miterlimit:10;" d="
		M820.4,827.3v-40.7h25.9v40.7"/>
	<path class="st1" d="M828.4,786.6V523.9h9.9v262.7"/>
	<path class="st2" d="M829.4,546.7v4.5v198.6v1h-1H574.9v-2h252.4v-11.7H574.9v-2h12.9v-21.3c-4.3,0.2-8.6,0.3-12.9,0.3v-2
		c111.9,0,208.4-66.1,252.5-161.3L829.4,546.7z M589.9,735.1h22v-23.4c-7.2,1-14.6,1.6-22,2V735.1z M613.8,735.1h22v-27.6
		c-7.2,1.6-14.5,2.9-22,3.9V735.1z M637.8,735.1h22v-34c-7.2,2.3-14.5,4.3-22,6V735.1z M661.7,735.1h22v-42.9
		c-7.2,3-14.5,5.8-22,8.2V735.1z M685.7,735.1h21.9v-54.3c-7.1,3.8-14.5,7.4-21.9,10.6V735.1z M709.6,735.1h22v-68.8
		c-7.1,4.8-14.4,9.3-22,13.4V735.1z M733.6,735.1h21.9v-86.9c-7,5.9-14.3,11.5-21.9,16.8V735.1z M757.5,735.1h22V625.5
		c-6.9,7.4-14.3,14.4-22,21V735.1z M781.5,735.1h21.9v-139c-6.8,9.5-14.1,18.6-21.9,27.1V735.1z M805.4,735.1h22V580.7h0v-25
		c-6.4,13.2-13.7,25.7-22,37.7V735.1z"/>
	
		<linearGradient id="SVGID_00000073697598253532155990000002022966935625489589_" gradientUnits="userSpaceOnUse" x1="938.1584" y1="361.9359" x2="966.6584" y2="340.4359" gradientTransform="matrix(1 0 0 -1 0 1086.85)">
		<stop  offset="0" style="stop-color:#232325"/>
		<stop  offset="1" style="stop-color:#232325;stop-opacity:0"/>
	</linearGradient>
	<path style="fill-rule:evenodd;clip-rule:evenodd;fill:url(#SVGID_00000073697598253532155990000002022966935625489589_);" d="
		M839.2,550.8l-1.9-4.1v4.5v29.5v155.4v13.7v1h1h125.1v-2H839.3v-11.7H982v0h1v-1v-43.9c7.2,3,14.5,5.8,21.9,8.2v9.8h2v-9.2
		c1,0.3,2,0.6,3,0.9l0.6-1.9C934.4,676.9,872.2,622,839.2,550.8z M974.2,735.1L974.2,735.1l6.7,0v-43.7c-7.5-3.2-14.8-6.8-22-10.6
		v54.3H974.2z M957,735.1v-55.4c-7.5-4.1-14.9-8.6-22-13.4v68.8H957z M933,735.1V665c-7.6-5.2-14.9-10.8-22-16.8v86.9H933z
		 M909.1,735.1v-88.6c-7.7-6.6-15-13.6-21.9-21v109.7H909.1z M885.2,735.1V623.3c-7.9-8.6-15.2-17.6-21.9-27.1v139H885.2z
		 M861.2,735.1V593.3c-8.2-11.9-15.6-24.5-22-37.6v25v154.5H861.2z"/>
	
		<radialGradient id="SVGID_00000088119793379878298070000001328472081914635664_" cx="170.3163" cy="1080.7427" r="1" gradientTransform="matrix(1.9999 132.5049 63.9849 -0.9657 -69400.9531 -20947.8906)" gradientUnits="userSpaceOnUse">
		<stop  offset="9.895830e-02" style="stop-color:#232325"/>
		<stop  offset="0.8333" style="stop-color:#232325"/>
		<stop  offset="0.9271" style="stop-color:#232325;stop-opacity:0"/>
	</radialGradient>
	<path style="fill-rule:evenodd;clip-rule:evenodd;fill:url(#SVGID_00000088119793379878298070000001328472081914635664_);" d="
		M99.8,557H27.4v2h71.4v14.5H27.4v2h71.4v133.4h2V558v-1H99.8z"/>
	<path class="st1" d="M75.9,593H65.1v24.7h10.7V593z"/>
	<path class="st1" d="M50.7,593H40v24.7h10.7V593z"/>
	<path class="st1" d="M75.9,630.6H65.1v24.7h10.7V630.6z"/>
	<path class="st1" d="M50.7,630.6H40v24.7h10.7V630.6z"/>
	<path class="st1" d="M75.9,668.2H65.1v24.7h10.7V668.2z"/>
	<path class="st1" d="M50.7,668.2H40v24.7h10.7V668.2z"/>
	
		<radialGradient id="SVGID_00000077307577236793795330000000906290619222793091_" cx="171.281" cy="1077.6604" r="1" gradientTransform="matrix(3.5 67.5 77.0568 -3.9955 -82746.8594 -6747.7627)" gradientUnits="userSpaceOnUse">
		<stop  offset="0" style="stop-color:#232325"/>
		<stop  offset="0.5425" style="stop-color:#232325"/>
		<stop  offset="1" style="stop-color:#232325;stop-opacity:0"/>
	</radialGradient>
	
		<path style="fill:none;stroke:url(#SVGID_00000077307577236793795330000000906290619222793091_);stroke-width:2;stroke-miterlimit:10;" d="
		M982,508.2h-69.9v20.4h-25.9v86.6"/>
	
		<linearGradient id="SVGID_00000153704362300564433900000018258514662830994356_" gradientUnits="userSpaceOnUse" x1="153.3887" y1="430.273" x2="161.8887" y2="404.273" gradientTransform="matrix(1 0 0 -1 0 1086.85)">
		<stop  offset="0" style="stop-color:#232325"/>
		<stop  offset="0.6979" style="stop-color:#232325;stop-opacity:0.875"/>
		<stop  offset="1" style="stop-color:#232325;stop-opacity:0"/>
	</linearGradient>
	<path style="fill-rule:evenodd;clip-rule:evenodd;fill:url(#SVGID_00000153704362300564433900000018258514662830994356_);" d="
		M124.8,657.2c0-6.1,4.9-11,11-11c6.1,0,11,4.9,11,11v33.8h2v-33.8c0-7.2-5.8-13-13-13c-7.2,0-13,5.8-13,13v39.2h2V657.2z
		 M172.7,657.2c0-6.1,4.9-11,11-11c6.1,0,11,4.9,11,11V670h2v-12.8c0-7.2-5.8-13-13-13s-13,5.8-13,13v24.5h2V657.2z"/>
	
		<radialGradient id="SVGID_00000071534233720848117470000008552069307573105829_" cx="175.0611" cy="1081.4136" r="1" gradientTransform="matrix(-1.5 30.5 79.5 3.9099 -85521.9141 -8946.6572)" gradientUnits="userSpaceOnUse">
		<stop  offset="0" style="stop-color:#232325"/>
		<stop  offset="0.776" style="stop-color:#232325"/>
		<stop  offset="1" style="stop-color:#232325;stop-opacity:0"/>
	</radialGradient>
	<path style="fill-rule:evenodd;clip-rule:evenodd;fill:url(#SVGID_00000071534233720848117470000008552069307573105829_);" d="
		M108.3,615.7h110.2V626H108.4v2h110.2v27.2h2v-40.6v-1h-1H108.3V615.7z"/>
	
		<linearGradient id="SVGID_00000162353852533684684770000001173250347255479181_" gradientUnits="userSpaceOnUse" x1="37.6843" y1="785.7552" x2="128.184" y2="731.7552" gradientTransform="matrix(1 0 0 -1 0 1086.85)">
		<stop  offset="0" style="stop-color:#232325;stop-opacity:0"/>
		<stop  offset="0.2865" style="stop-color:#232325"/>
		<stop  offset="0.6042" style="stop-color:#232325"/>
		<stop  offset="1" style="stop-color:#232325;stop-opacity:0"/>
	</linearGradient>
	
		<path style="fill:none;stroke:url(#SVGID_00000162353852533684684770000001173250347255479181_);stroke-width:2;stroke-miterlimit:10;" d="
		M27.4,289.1c26.3,0,47.7,21.3,47.7,47.7H90c16.9,0,32.2,6.7,43.4,17.5"/>
	
		<linearGradient id="SVGID_00000035508472245565580270000001371809558436045472_" gradientUnits="userSpaceOnUse" x1="248.8402" y1="517.2444" x2="253.3402" y2="503.7444" gradientTransform="matrix(1 0 0 -1 0 1086.85)">
		<stop  offset="0" style="stop-color:#232325"/>
		<stop  offset="1" style="stop-color:#232325;stop-opacity:0"/>
	</linearGradient>
	
		<path style="fill:none;stroke:url(#SVGID_00000035508472245565580270000001371809558436045472_);stroke-width:2;stroke-miterlimit:10;" d="
		M195.6,605.9v-31.4h39.3v-72.3h56.5v67.4"/>
	<path class="st1" d="M243.5,523.9h39.2"/>
	<path class="st1" d="M243.5,537.6h39.2"/>
	<path class="st1" d="M243.5,551.2h39.2"/>
	<path class="st1" d="M243.5,564.9h39.2"/>
	<path class="st1" d="M243.5,578.6h39.2"/>
	<path class="st1" d="M243.5,592.3h39.2"/>
	<path class="st1" d="M63.6,842.1h54.7"/>
	<path class="st1" d="M425.5,842.1h54.8"/>
	<path class="st1" d="M240.1,842.1h118"/>
	<path class="st1" d="M147.7,860.8h54.7"/>
	<path class="st1" d="M398.1,860.8h54.8"/>
	<path class="st1" d="M469.6,860.8h21.2"/>
	<path class="st1" d="M320.3,877.5h21.2"/>
	<path class="st1" d="M583.5,842.1h21.2"/>
	<path class="st1" d="M267.5,860.8h54.8"/>
	<path class="st1" d="M791.9,860.8h54.8"/>
	<path class="st1" d="M594.1,860.8h179.1"/>
	<path class="st1" d="M240.1,877.5h54.7"/>
	<path class="st1" d="M1043.4,842.1h-142"/>
	<path class="st1" d="M946.8,877.5h-25.5"/>
	<path class="st1" d="M779.9,842.1h-25.5"/>
	<path class="st1" d="M649,842.1h-25.5"/>
	<path class="st1" d="M1080.5,860.8h-65.9"/>
	<path class="st1" d="M1043.4,877.5h-65.9"/>
	<path class="st1" d="M757.2,877.5h54.8"/>
	<path class="st1" d="M1009.1,630.4V487.8h81.1v142.6"/>
	<path class="st1" d="M1066.7,487.8h-34.5"/>
	<path class="st1" d="M1068.6,508.2h-38.2"/>
	<path class="st1" d="M1073,528.5h-47.2"/>
	<path class="st1" d="M1076.5,548.9h-54"/>
	<path class="st1" d="M1079.9,569.3H1019"/>
	<path class="st1" d="M1083.3,589.6h-67.8"/>
	<path class="st1" d="M1086.8,610h-74.7"/>
	<path class="st1" d="M1090.2,630.4h-81.5"/>
	<path class="st1" d="M1093.6,650.7h-88.3"/>
	
		<linearGradient id="SVGID_00000042729095015698112670000011378741300411708068_" gradientUnits="userSpaceOnUse" x1="1022.159" y1="415.778" x2="1046.1591" y2="415.778" gradientTransform="matrix(1 0 0 -1 0 1086.85)">
		<stop  offset="0" style="stop-color:#232325"/>
		<stop  offset="1" style="stop-color:#232325;stop-opacity:0"/>
	</linearGradient>
	
		<path style="fill:none;stroke:url(#SVGID_00000042729095015698112670000011378741300411708068_);stroke-width:2;stroke-miterlimit:10;" d="
		M1054.6,671.1h-52.7"/>
	<path class="st1" d="M1022.4,691.4h-24.6"/>
	
		<linearGradient id="SVGID_00000160180391840579019380000012414241402651849382_" gradientUnits="userSpaceOnUse" x1="1091.4089" y1="446.7968" x2="1105.4089" y2="427.2968" gradientTransform="matrix(1 0 0 -1 0 1086.85)">
		<stop  offset="0" style="stop-color:#232325"/>
		<stop  offset="1" style="stop-color:#232325;stop-opacity:0"/>
	</linearGradient>
	
		<path style="fill:none;stroke:url(#SVGID_00000160180391840579019380000012414241402651849382_);stroke-width:2;stroke-miterlimit:10;" d="
		M1096.2,665.6l-44-261.1h-5l-48.4,287h22.3"/>
	
		<linearGradient id="SVGID_00000073696667367329290150000015718630568549138822_" gradientUnits="userSpaceOnUse" x1="311.9647" y1="738.7929" x2="56.4645" y2="694.2929" gradientTransform="matrix(1 0 0 -1 0 1086.85)">
		<stop  offset="0" style="stop-color:#232325;stop-opacity:0"/>
		<stop  offset="0.1936" style="stop-color:#232325"/>
		<stop  offset="0.8128" style="stop-color:#232325"/>
		<stop  offset="1" style="stop-color:#232325;stop-opacity:0"/>
	</linearGradient>
	
		<path style="fill:none;stroke:url(#SVGID_00000073696667367329290150000015718630568549138822_);stroke-width:2;stroke-miterlimit:10;" d="
		M326.1,377.7c-9.9-6.6-21.9-10.5-34.7-10.5c-9.9,0-19.2,2.3-27.5,6.4c-15-21.7-40-35.9-68.3-35.9c-37.3,0-68.8,24.6-79.2,58.4
		c-5.2-1.7-10.8-2.6-16.6-2.6c-18.7,0-35.3,9.5-45,23.9"/>
	
		<linearGradient id="SVGID_00000123406467862037034270000009604276545478339718_" gradientUnits="userSpaceOnUse" x1="770.5345" y1="1027.4484" x2="515.0343" y2="982.9484" gradientTransform="matrix(1 0 0 -1 0 1086.85)">
		<stop  offset="0" style="stop-color:#232325;stop-opacity:0"/>
		<stop  offset="0.1936" style="stop-color:#232325"/>
		<stop  offset="0.8128" style="stop-color:#232325"/>
		<stop  offset="1" style="stop-color:#232325;stop-opacity:0"/>
	</linearGradient>
	
		<path style="fill:none;stroke:url(#SVGID_00000123406467862037034270000009604276545478339718_);stroke-width:2;stroke-miterlimit:10;" d="
		M784.7,89.1c-9.9-6.6-21.9-10.5-34.7-10.5c-9.9,0-19.2,2.3-27.5,6.4c-15-21.7-40-35.9-68.3-35.9c-37.3,0-68.8,24.6-79.2,58.4
		c-5.2-1.7-10.8-2.6-16.6-2.6c-18.7,0-35.3,9.5-45,23.9"/>
	
		<linearGradient id="SVGID_00000093878425893864344560000008415468347619835579_" gradientUnits="userSpaceOnUse" x1="1072.3745" y1="975.1084" x2="816.8743" y2="930.6085" gradientTransform="matrix(1 0 0 -1 0 1086.85)">
		<stop  offset="0" style="stop-color:#232325;stop-opacity:0"/>
		<stop  offset="0.1936" style="stop-color:#232325"/>
		<stop  offset="0.8128" style="stop-color:#232325"/>
		<stop  offset="1" style="stop-color:#232325;stop-opacity:0"/>
	</linearGradient>
	
		<path style="fill:none;stroke:url(#SVGID_00000093878425893864344560000008415468347619835579_);stroke-width:2;stroke-miterlimit:10;" d="
		M1086.5,141.4c-9.9-6.6-21.9-10.5-34.7-10.5c-9.9,0-19.2,2.3-27.5,6.4c-15-21.7-40-35.9-68.3-35.9c-37.3,0-68.8,24.6-79.2,58.4
		c-5.2-1.7-10.8-2.6-16.6-2.6c-18.7,0-35.3,9.5-45,23.9"/>
	
		<linearGradient id="SVGID_00000015357143172454107600000017632539673590996375_" gradientUnits="userSpaceOnUse" x1="968.0638" y1="635.6428" x2="980.5638" y2="618.1428" gradientTransform="matrix(1 0 0 -1 0 1086.85)">
		<stop  offset="0" style="stop-color:#232325"/>
		<stop  offset="1" style="stop-color:#232325;stop-opacity:0"/>
	</linearGradient>
	
		<path style="fill:none;stroke:url(#SVGID_00000015357143172454107600000017632539673590996375_);stroke-width:2;stroke-miterlimit:10;" d="
		M934,502.9v-36.8h33.9v-46.7h47.7V445"/>
	
		<linearGradient id="SVGID_00000084511701241839951650000012940378499810784411_" gradientUnits="userSpaceOnUse" x1="750.1063" y1="692.3309" x2="900.1063" y2="593.3309" gradientTransform="matrix(1 0 0 -1 0 1086.85)">
		<stop  offset="0" style="stop-color:#232325;stop-opacity:0"/>
		<stop  offset="0.1146" style="stop-color:#232325"/>
		<stop  offset="0.8542" style="stop-color:#232325"/>
		<stop  offset="1" style="stop-color:#232325;stop-opacity:0"/>
	</linearGradient>
	
		<path style="fill:none;stroke:url(#SVGID_00000084511701241839951650000012940378499810784411_);stroke-width:2;stroke-miterlimit:10;" d="
		M907.7,502.2c-11.4-16.8-30.6-27.9-52.5-27.9c-3.9,0-7.7,0.4-11.4,1.1c-7-46.7-47.3-82.6-96-82.6"/>
	
		<linearGradient id="SVGID_00000078022853128823410960000011319825963321145780_" gradientUnits="userSpaceOnUse" x1="1103.0184" y1="824.16" x2="825.5184" y2="709.66" gradientTransform="matrix(1 0 0 -1 0 1086.85)">
		<stop  offset="0" style="stop-color:#232325;stop-opacity:0"/>
		<stop  offset="0.1316" style="stop-color:#232325"/>
		<stop  offset="0.8357" style="stop-color:#232325"/>
		<stop  offset="1" style="stop-color:#232325;stop-opacity:0"/>
	</linearGradient>
	
		<path style="fill:none;stroke:url(#SVGID_00000078022853128823410960000011319825963321145780_);stroke-width:2;stroke-miterlimit:10;" d="
		M1126.2,288c-18.4-18.9-44.2-30.6-72.7-30.6c-44.5,0-82.4,28.7-96.1,68.6c-7.8-3.5-16.4-5.4-25.5-5.4c-31.5,0-57.6,23.3-62.1,53.6
		c-2.3-0.4-4.7-0.6-7.1-0.6c-13.4,0-25.4,6.3-33.1,16.2"/>
	
		<linearGradient id="SVGID_00000181056494076323287100000015794922494535917467_" gradientUnits="userSpaceOnUse" x1="345.6473" y1="1006.3585" x2="68.1474" y2="891.8585" gradientTransform="matrix(-1 0 0 -1 640.514 1086.85)">
		<stop  offset="0" style="stop-color:#232325;stop-opacity:0"/>
		<stop  offset="0.1316" style="stop-color:#232325"/>
		<stop  offset="0.8357" style="stop-color:#232325"/>
		<stop  offset="1" style="stop-color:#232325;stop-opacity:0"/>
	</linearGradient>
	
		<path style="fill:none;stroke:url(#SVGID_00000181056494076323287100000015794922494535917467_);stroke-width:2;stroke-miterlimit:10;" d="
		M568.4,207.4c-7.7-9.8-19.7-16.2-33.1-16.2c-2.4,0-4.8,0.2-7.1,0.6c-4.5-30.3-30.6-53.6-62.1-53.6c-9.1,0-17.7,1.9-25.5,5.4
		c-13.7-39.9-51.6-68.6-96.1-68.6c-28.5,0-54.2,11.7-72.7,30.6"/>
	<path class="st1" d="M317.4,365.2c1.9-6,2.9-12.4,2.9-19c0-35.6-28.8-64.4-64.4-64.4c-30.3,0-55.7,20.9-62.5,49"/>
	
		<linearGradient id="SVGID_00000022539174467279249070000008714664165366830224_" gradientUnits="userSpaceOnUse" x1="255.849" y1="828.425" x2="255.849" y2="874.425" gradientTransform="matrix(1 0 0 -1 0 1086.85)">
		<stop  offset="0" style="stop-color:#232325"/>
		<stop  offset="1" style="stop-color:#232325;stop-opacity:0"/>
	</linearGradient>
	
		<path style="fill:none;stroke:url(#SVGID_00000022539174467279249070000008714664165366830224_);stroke-width:2;stroke-miterlimit:10;" d="
		M255.8,207.4v74.3"/>
	
		<radialGradient id="SVGID_00000108989826729588191100000015222333085152968609_" cx="166.5241" cy="1083.2878" r="1" gradientTransform="matrix(72 -67.5 -67.5073 -72.0078 61449.5078 89538.4688)" gradientUnits="userSpaceOnUse">
		<stop  offset="0" style="stop-color:#232325"/>
		<stop  offset="0.2292" style="stop-color:#232325"/>
		<stop  offset="0.4323" style="stop-color:#232325;stop-opacity:0"/>
		<stop  offset="0.6615" style="stop-color:#232325;stop-opacity:0"/>
		<stop  offset="0.875" style="stop-color:#232325"/>
		<stop  offset="1" style="stop-color:#232325;stop-opacity:0"/>
	</radialGradient>
	<path style="fill-rule:evenodd;clip-rule:evenodd;fill:url(#SVGID_00000108989826729588191100000015222333085152968609_);" d="
		M354.9,248.5l29.9-29.9l-1.4-1.4l-29.9,29.9L354.9,248.5z M343.3,257.3l-42.6,42.6l1.4,1.4l42.6-42.6L343.3,257.3z"/>
	
		<linearGradient id="SVGID_00000059988045605870503890000014575840866693927865_" gradientUnits="userSpaceOnUse" x1="177.2563" y1="819.7883" x2="133.2563" y2="860.7883" gradientTransform="matrix(1 0 0 -1 0 1086.85)">
		<stop  offset="0" style="stop-color:#232325"/>
		<stop  offset="1" style="stop-color:#232325;stop-opacity:0"/>
	</linearGradient>
	
		<path style="fill:none;stroke:url(#SVGID_00000059988045605870503890000014575840866693927865_);stroke-width:2;stroke-miterlimit:10;" d="
		M129.3,219.6l40.5,40.5l40.5,40.5"/>
	
		<linearGradient id="SVGID_00000095297506015305543090000015941014417871654079_" gradientUnits="userSpaceOnUse" x1="339.883" y1="740.679" x2="351.883" y2="740.679" gradientTransform="matrix(1 0 0 -1 0 1086.85)">
		<stop  offset="0" style="stop-color:#232325"/>
		<stop  offset="1" style="stop-color:#232325;stop-opacity:0"/>
	</linearGradient>
	
		<path style="fill:none;stroke:url(#SVGID_00000095297506015305543090000015941014417871654079_);stroke-width:2;stroke-miterlimit:10;" d="
		M320.3,346.2h35.9"/>
	
		<linearGradient id="SVGID_00000008849958110841717000000000858889520773603756_" gradientUnits="userSpaceOnUse" x1="334.9913" y1="773.5875" x2="488.9913" y2="837.0875" gradientTransform="matrix(1 0 0 -1 0 1086.85)">
		<stop  offset="0.4688" style="stop-color:#232325"/>
		<stop  offset="0.5469" style="stop-color:#232325;stop-opacity:0"/>
		<stop  offset="0.6927" style="stop-color:#232325;stop-opacity:0"/>
		<stop  offset="0.8021" style="stop-color:#232325"/>
		<stop  offset="0.8958" style="stop-color:#232325"/>
		<stop  offset="1" style="stop-color:#232325;stop-opacity:0"/>
	</linearGradient>
	<path style="fill-rule:evenodd;clip-rule:evenodd;fill:url(#SVGID_00000008849958110841717000000000858889520773603756_);" d="
		M495,246.1l-58.3,24.1l0.8,1.8l58.3-24.1L495,246.1z M315.7,322.5l105.9-43.9l-0.8-1.8L315,320.6L315.7,322.5z"/>
	
		<linearGradient id="SVGID_00000095301878444723987400000005115657709682145434_" gradientUnits="userSpaceOnUse" x1="25.0697" y1="836.1673" x2="186.0699" y2="769.6671" gradientTransform="matrix(1 0 0 -1 0 1086.85)">
		<stop  offset="0" style="stop-color:#232325;stop-opacity:0"/>
		<stop  offset="8.854170e-02" style="stop-color:#232325"/>
		<stop  offset="0.3021" style="stop-color:#232325"/>
		<stop  offset="0.484" style="stop-color:#232325;stop-opacity:0"/>
		<stop  offset="0.6042" style="stop-color:#232325;stop-opacity:0"/>
		<stop  offset="0.7206" style="stop-color:#232325"/>
		<stop  offset="0.8797" style="stop-color:#232325"/>
		<stop  offset="1" style="stop-color:#232325;stop-opacity:0"/>
	</linearGradient>
	<path style="fill-rule:evenodd;clip-rule:evenodd;fill:url(#SVGID_00000095301878444723987400000005115657709682145434_);" d="
		M25,251.6l82.2,34l0.8-1.8l-82.2-34L25,251.6z M196.7,320.6l-75-31l-0.8,1.8l75,31.1L196.7,320.6z"/>
	
		<linearGradient id="SVGID_00000178200462341142091730000015592979504943389356_" gradientUnits="userSpaceOnUse" x1="281.2743" y1="801.179" x2="305.2743" y2="860.6785" gradientTransform="matrix(1 0 0 -1 0 1086.85)">
		<stop  offset="0.1862" style="stop-color:#232325"/>
		<stop  offset="1" style="stop-color:#232325;stop-opacity:0"/>
	</linearGradient>
	
		<path style="fill:none;stroke:url(#SVGID_00000178200462341142091730000015592979504943389356_);stroke-width:2;stroke-miterlimit:10;" d="
		M308.8,218.5l-28.3,68.2"/>
	
		<linearGradient id="SVGID_00000044871698673966678880000013390717026655180683_" gradientUnits="userSpaceOnUse" x1="217.3052" y1="838.2873" x2="213.8052" y2="854.7873" gradientTransform="matrix(1 0 0 -1 0 1086.85)">
		<stop  offset="0" style="stop-color:#232325"/>
		<stop  offset="1" style="stop-color:#232325;stop-opacity:0"/>
	</linearGradient>
	
		<path style="fill:none;stroke:url(#SVGID_00000044871698673966678880000013390717026655180683_);stroke-width:2;stroke-miterlimit:10;" d="
		M207.3,229.1l23.9,57.6"/>
	
		<radialGradient id="SVGID_00000180329842931075049580000010531364467633747101_" cx="169.6896" cy="1083.5472" r="1" gradientTransform="matrix(-192.4997 34.5009 157.7241 880.0306 -137494.8906 -959193.875)" gradientUnits="userSpaceOnUse">
		<stop  offset="0" style="stop-color:#232325"/>
		<stop  offset="0.785" style="stop-color:#232325;stop-opacity:0.7757"/>
		<stop  offset="1" style="stop-color:#232325;stop-opacity:0"/>
	</radialGradient>
	
		<path style="fill:none;stroke:url(#SVGID_00000180329842931075049580000010531364467633747101_);stroke-width:2;stroke-miterlimit:10;" d="
		M968.8,275.9c-15.1-9.5-33-15-52.1-15c-9.6,0-18.9,1.4-27.7,4c-18.4-48.4-65.2-82.8-120.1-82.8c-43.9,0-82.6,22-105.7,55.5
		c-12.9-6.3-27.3-9.9-42.6-9.9c-33.5,0-63,17-80.4,42.8"/>
	
		<linearGradient id="SVGID_00000087390160799480029170000003649099219381912220_" gradientUnits="userSpaceOnUse" x1="290.7549" y1="307.7752" x2="40.2552" y2="341.7751" gradientTransform="matrix(1 0 0 -1 0 1086.85)">
		<stop  offset="0" style="stop-color:#232325;stop-opacity:0"/>
		<stop  offset="0.1662" style="stop-color:#232325"/>
		<stop  offset="0.7812" style="stop-color:#232325"/>
		<stop  offset="1" style="stop-color:#232325;stop-opacity:0"/>
	</linearGradient>
	
		<path style="fill:none;stroke:url(#SVGID_00000087390160799480029170000003649099219381912220_);stroke-width:2;stroke-miterlimit:10;" d="
		M27.4,706.3h32.9c25.5,0,50,10.1,68.1,28.2l48.5,48.5c6.7,6.7,15.7,10.4,25.1,10.4h27.2c19.6,0,38.3,7.8,52.2,21.6l6.4,6.4"/>
	
		<linearGradient id="SVGID_00000076581350912093683560000005297775728847532685_" gradientUnits="userSpaceOnUse" x1="130.0556" y1="565.8193" x2="102.0556" y2="519.8193" gradientTransform="matrix(1 0 0 -1 0 1086.85)">
		<stop  offset="0.5238" style="stop-color:#232325"/>
		<stop  offset="1" style="stop-color:#232325;stop-opacity:0"/>
	</linearGradient>
	
		<path style="fill:none;stroke:url(#SVGID_00000076581350912093683560000005297775728847532685_);stroke-width:2;stroke-miterlimit:10;" d="
		M75.7,551.9v-96.7h82.6V558h13.4v50.9"/>
	
		<linearGradient id="SVGID_00000075150965000876241230000010312066211161599909_" gradientUnits="userSpaceOnUse" x1="94.3359" y1="553.4529" x2="93.8446" y2="534.9889" gradientTransform="matrix(1 0 0 -1 0 1086.85)">
		<stop  offset="0" style="stop-color:#232325"/>
		<stop  offset="1" style="stop-color:#232325;stop-opacity:0"/>
	</linearGradient>
	
		<path style="fill:none;stroke:url(#SVGID_00000075150965000876241230000010312066211161599909_);stroke-width:2;stroke-miterlimit:10;" d="
		M90,551.9v-77.7h9.9v77.7"/>
	
		<linearGradient id="SVGID_00000015323046283162883020000012899817204717321621_" gradientUnits="userSpaceOnUse" x1="127.9915" y1="506.925" x2="127.9915" y2="481.925" gradientTransform="matrix(1 0 0 -1 0 1086.85)">
		<stop  offset="0" style="stop-color:#232325"/>
		<stop  offset="1" style="stop-color:#232325;stop-opacity:0"/>
	</linearGradient>
	<path style="fill-rule:evenodd;clip-rule:evenodd;fill:url(#SVGID_00000015323046283162883020000012899817204717321621_);" d="
		M112,473.2h-1v1v134.7h2V475.2h7.9v133.7h2V474.2v-1h-1H112z M134.1,473.2h-1v1v134.7h2V475.2h7.9v133.7h2V474.2v-1h-1H134.1z"/>
	
		<linearGradient id="SVGID_00000015327833681947325100000003999834578426473364_" gradientUnits="userSpaceOnUse" x1="493.251" y1="769.2949" x2="165.751" y2="610.7949" gradientTransform="matrix(1 0 0 -1 0 1086.85)">
		<stop  offset="1.588740e-02" style="stop-color:#232325;stop-opacity:0"/>
		<stop  offset="0.1656" style="stop-color:#232325"/>
		<stop  offset="0.8928" style="stop-color:#232325"/>
		<stop  offset="0.9837" style="stop-color:#232325;stop-opacity:0"/>
	</linearGradient>
	
		<path style="fill:none;stroke:url(#SVGID_00000015327833681947325100000003999834578426473364_);stroke-width:2;stroke-miterlimit:10;" d="
		M508.7,346.2c-20-15.1-44.8-24-71.7-24c-54.9,0-101.2,37.2-115,87.8h-10.7c-41,0-74.8,30.4-80.3,69.8h-15.6
		c-20.7,0-38.8,11.1-48.7,27.6"/>
	<path class="st1" d="M79.5,756.7c0.8-2.2,1.3-4.5,1.3-7c0-10.8-8.8-19.6-19.6-19.6c-10.8,0-19.6,8.8-19.6,19.6c0,2.5,0.5,4.8,1.3,7
		c-5.6,5-9.2,12.4-9.2,20.5c0,15.2,12.3,27.5,27.5,27.5c15.2,0,27.5-12.3,27.5-27.5C88.7,769.1,85.1,761.8,79.5,756.7L79.5,756.7z"
		/>
	<path class="st1" d="M61.1,827.3v-22.5"/>
	<path class="st1" d="M143.4,827.3l-17.6-26h11.7l-17.9-26.5h10.3L114,751.4l-15.8,23.4h10.3l-18,26.5h11.7l-17.6,26H143.4z"/>
	<path class="st1" d="M1043.4,814.9l-9.2-13.6h11.7l-17.9-26.5h10.3l-15.8-23.4l-15.8,23.4h10.3l-17.9,26.5h11.8l-17.6,26"/>
	<path class="st1" d="M1119.2,827.3l-19.3-28.5h9.4l-17.6-26h11.8l-17.9-26.5h10.3l-15.8-23.4l-15.8,23.4h10.3l-17.9,26.5h11.8
		l-17.6,26h9.4l-19.3,28.5"/>
	<path class="st1" d="M964.6,551.2h-27.6v7.5h27.6V551.2z"/>
	<path class="st1" d="M964.6,572.1h-27.6v7.5h27.6V572.1z"/>
	
		<linearGradient id="SVGID_00000065067517484756312330000016277358694978186171_" gradientUnits="userSpaceOnUse" x1="976.159" y1="521.4295" x2="986.159" y2="521.4295" gradientTransform="matrix(1 0 0 -1 0 1086.85)">
		<stop  offset="0" style="stop-color:#232325"/>
		<stop  offset="1" style="stop-color:#232325;stop-opacity:0"/>
	</linearGradient>
	<path style="fill-rule:evenodd;clip-rule:evenodd;fill:url(#SVGID_00000065067517484756312330000016277358694978186171_);" d="
		M974.2,550.2h-1v1v7.5v1h1h11.5v-2h-10.5v-5.5h10.5v-2H974.2z M974.2,571.1h-1v1v7.5v1h1h11.5v-2h-10.5v-5.5h10.5v-2H974.2z"/>
	
		<linearGradient id="SVGID_00000083046496894883276760000010189510446871941287_" gradientUnits="userSpaceOnUse" x1="952.4362" y1="469.1347" x2="913.3861" y2="469.4707" gradientTransform="matrix(1 0 0 -1 0 1086.85)">
		<stop  offset="0" style="stop-color:#232325"/>
		<stop  offset="1.000000e-04" style="stop-color:#232325;stop-opacity:0"/>
		<stop  offset="0.3021" style="stop-color:#232325"/>
		<stop  offset="0.651" style="stop-color:#232325"/>
		<stop  offset="1" style="stop-color:#232325;stop-opacity:0"/>
	</linearGradient>
	<path style="fill-rule:evenodd;clip-rule:evenodd;fill:url(#SVGID_00000083046496894883276760000010189510446871941287_);" d="
		M937.1,591.9h-1v1v7.5v1h1h15.3v-2h-14.3v-5.5h14.3v-2H937.1z M906.7,635.6h19.8v5.5h-12.8v2h13.8h1v-1v-7.5v-1h-1h-20.8V635.6z
		 M936.1,633.6h1h15.3v2h-14.3v5.5h14.3v2h-15.3h-1v-1v-7.5V633.6z M937.1,612.8h-1v1v7.5v1h1h15.3v-2h-14.3v-5.5h14.3v-2H937.1z"/>
	<path class="st1" d="M927.5,572.1h-27.6v7.5h27.6V572.1z"/>
	<path class="st1" d="M927.5,551.2h-27.6v7.5h27.6V551.2z"/>
	<path class="st1" d="M927.5,592.9h-27.6v7.5h27.6V592.9z"/>
	<path class="st1" d="M927.5,613.8h-27.6v7.5h27.6V613.8z"/>
	
		<linearGradient id="SVGID_00000059311409004360325460000006554796721429701512_" gradientUnits="userSpaceOnUse" x1="450.9293" y1="579.663" x2="362.9293" y2="521.163" gradientTransform="matrix(1 0 0 -1 0 1086.85)">
		<stop  offset="1.908880e-02" style="stop-color:#232325;stop-opacity:0"/>
		<stop  offset="0.1599" style="stop-color:#232325"/>
		<stop  offset="0.8353" style="stop-color:#232325"/>
		<stop  offset="0.977" style="stop-color:#232325;stop-opacity:0"/>
	</linearGradient>
	
		<path style="fill:none;stroke:url(#SVGID_00000059311409004360325460000006554796721429701512_);stroke-width:2;stroke-miterlimit:10;" d="
		M460.7,501.9c-28.5,0-52.2,20.2-57.6,47.1c-4.2-1.5-8.8-2.3-13.5-2.3c-13,0-24.6,6.1-32.1,15.5"/>
	
		<linearGradient id="SVGID_00000055681345514383032010000017170096625457444764_" gradientUnits="userSpaceOnUse" x1="1115.1613" y1="410.7522" x2="854.1613" y2="283.7522" gradientTransform="matrix(1 0 0 -1 0 1086.85)">
		<stop  offset="0" style="stop-color:#232325;stop-opacity:0"/>
		<stop  offset="0.1238" style="stop-color:#232325"/>
		<stop  offset="0.7804" style="stop-color:#232325"/>
		<stop  offset="1" style="stop-color:#232325;stop-opacity:0"/>
	</linearGradient>
	
		<path style="fill:none;stroke:url(#SVGID_00000055681345514383032010000017170096625457444764_);stroke-width:2;stroke-miterlimit:10;" d="
		M1125.7,671.1h-30.1c-27.8,0-54.4,11-74,30.6l-68,68c-6.1,6.1-14.3,9.5-22.9,9.5h-27.1c-24.3,0-44,19.7-44,44v4.2"/>
	
		<linearGradient id="SVGID_00000150806763881229622180000012567998377971833519_" gradientUnits="userSpaceOnUse" x1="1122.3862" y1="512.0159" x2="1100.8862" y2="513.5159" gradientTransform="matrix(1 0 0 -1 0 1086.85)">
		<stop  offset="0" style="stop-color:#232325;stop-opacity:0"/>
		<stop  offset="0.5156" style="stop-color:#232325"/>
		<stop  offset="1" style="stop-color:#232325;stop-opacity:0"/>
	</linearGradient>
	
		<path style="fill:none;stroke:url(#SVGID_00000150806763881229622180000012567998377971833519_);stroke-width:2;stroke-miterlimit:10;" d="
		M1096.3,548.9h15.5v50.4h13.9"/>
	<path class="st1" d="M950.9,827.3c0-22.2,18-40.1,40.1-40.1c2.7,0,5.2,0.3,7.8,0.7"/>
	
		<linearGradient id="SVGID_00000054952460169850952160000011604699214546930867_" gradientUnits="userSpaceOnUse" x1="1011.3611" y1="640.2655" x2="954.8611" y2="432.2655" gradientTransform="matrix(1 0 0 -1 0 1086.85)">
		<stop  offset="0" style="stop-color:#232325;stop-opacity:0"/>
		<stop  offset="7.598280e-02" style="stop-color:#232325"/>
		<stop  offset="0.8067" style="stop-color:#232325"/>
		<stop  offset="1" style="stop-color:#232325;stop-opacity:0"/>
	</linearGradient>
	
		<path style="fill:none;stroke:url(#SVGID_00000054952460169850952160000011604699214546930867_);stroke-width:2;stroke-miterlimit:10;" d="
		M958,667.2v-74.3h31.9V449.5h42.2"/>
	
		<linearGradient id="SVGID_00000085936473843586867970000014332574108514016182_" gradientUnits="userSpaceOnUse" x1="65.6585" y1="610.7325" x2="27.1585" y2="608.7325" gradientTransform="matrix(1 0 0 -1 0 1086.85)">
		<stop  offset="0" style="stop-color:#232325;stop-opacity:0"/>
		<stop  offset="0.2416" style="stop-color:#232325"/>
		<stop  offset="0.6068" style="stop-color:#232325"/>
		<stop  offset="0.8985" style="stop-color:#232325;stop-opacity:0"/>
	</linearGradient>
	
		<path style="fill:none;stroke:url(#SVGID_00000085936473843586867970000014332574108514016182_);stroke-width:2;stroke-miterlimit:10;" d="
		M27.7,427h26.9v100h15.8"/>
</g>
</svg>
