<?xml version="1.0" encoding="utf-8"?>
<!-- Generator: Adobe Illustrator 26.5.0, SVG Export Plug-In . SVG Version: 6.00 Build 0)  -->
<svg version="1.1" id="Layer_1" xmlns="http://www.w3.org/2000/svg" xmlns:xlink="http://www.w3.org/1999/xlink" x="0px" y="0px"
	 viewBox="0 0 402 304.28" style="enable-background:new 0 0 402 304.28;" xml:space="preserve">
<style type="text/css">
	.st0{fill:#232325;}
</style>
<g>
	<rect x="251.59" y="92.74" class="st0" width="11.94" height="119.36"/>
	
		<rect x="132.23" y="92.74" transform="matrix(-1 -4.998547e-11 4.998547e-11 -1 276.4009 304.85)" class="st0" width="11.94" height="119.36"/>
	
		<rect x="144.17" y="116.62" transform="matrix(-1 -4.488022e-11 4.488022e-11 -1 300.273 245.1699)" class="st0" width="11.94" height="11.94"/>
	
		<rect x="156.1" y="128.55" transform="matrix(-1 -8.968438e-11 8.968438e-11 -1 324.145 280.9779)" class="st0" width="11.94" height="23.87"/>
	
		<rect x="168.04" y="152.42" transform="matrix(-1 -4.510893e-11 4.510893e-11 -1 348.0171 316.786)" class="st0" width="11.94" height="11.94"/>
	<rect x="179.98" y="164.36" class="st0" width="23.87" height="11.94"/>
	<rect x="239.66" y="116.62" class="st0" width="11.94" height="11.94"/>
	<rect x="227.72" y="128.55" class="st0" width="11.94" height="23.87"/>
	<rect x="215.78" y="152.42" class="st0" width="11.94" height="11.94"/>
	
		<rect x="191.91" y="164.36" transform="matrix(-1 -4.468971e-11 4.468971e-11 -1 407.6972 340.6581)" class="st0" width="23.87" height="11.94"/>
	<rect x="120.3" y="116.62" class="st0" width="11.94" height="11.94"/>
	<rect x="108.36" y="128.55" class="st0" width="11.94" height="23.87"/>
	<rect x="96.42" y="152.42" class="st0" width="11.94" height="11.94"/>
	
		<rect x="72.55" y="164.36" transform="matrix(-1 -4.468971e-11 4.468971e-11 -1 168.9767 340.6581)" class="st0" width="23.87" height="11.94"/>
	
		<rect x="263.53" y="116.62" transform="matrix(-1 -4.488022e-11 4.488022e-11 -1 538.9935 245.1699)" class="st0" width="11.94" height="11.94"/>
	
		<rect x="275.46" y="128.55" transform="matrix(-1 -8.968438e-11 8.968438e-11 -1 562.8655 280.9779)" class="st0" width="11.94" height="23.87"/>
	
		<rect x="287.4" y="152.42" transform="matrix(-1 -4.548996e-11 4.548996e-11 -1 586.7375 316.786)" class="st0" width="11.94" height="11.94"/>
	<rect x="299.34" y="164.36" class="st0" width="23.87" height="11.94"/>
	<rect x="72.55" y="188.23" class="st0" width="250.66" height="11.94"/>
	<rect x="60.62" y="224.04" class="st0" width="274.53" height="11.94"/>
	<rect x="60.62" y="68.87" class="st0" width="274.53" height="11.94"/>
	
		<rect x="269.5" y="146.46" transform="matrix(6.123234e-17 -1 1 6.123234e-17 188.6879 493.5379)" class="st0" width="143.23" height="11.94"/>
	
		<rect x="-17.21" y="146.46" transform="matrix(6.123234e-17 -1 1 6.123234e-17 -98.0154 206.8346)" class="st0" width="143.23" height="11.94"/>
</g>
</svg>
