<svg width="254" height="29" viewBox="0 0 254 29" fill="none" xmlns="http://www.w3.org/2000/svg">
<path fill-rule="evenodd" clip-rule="evenodd" d="M15.2817 3.5006C14.3244 5.73362 12.1972 6.72991 10.5157 6.68996H7.24633C7.12089 6.68985 6.99867 6.73045 6.89732 6.80592C6.79597 6.88138 6.72074 6.98779 6.68251 7.10978L3.35023 17.6922C3.32634 17.7679 3.31732 17.8477 3.32368 17.927C3.33004 18.0064 3.35164 18.0836 3.38726 18.1544C3.42289 18.2252 3.47183 18.2881 3.53129 18.3395C3.59074 18.391 3.65955 18.43 3.73378 18.4543C3.79215 18.4729 3.85289 18.4827 3.91404 18.4832H9.74401C9.99778 18.4835 10.245 18.4012 10.4499 18.2482C10.6547 18.0953 10.8065 17.8797 10.8832 17.6326L13.2957 9.97331L13.3425 9.86757C13.9799 8.27837 15.7282 6.68839 18.1154 6.68839H24.9733C25.2256 6.68864 25.4715 6.6073 25.6757 6.45604C25.8799 6.30478 26.032 6.09137 26.1101 5.84641L27.6059 1.154C27.6549 1.00163 27.6425 0.835668 27.5716 0.692605C27.5007 0.549542 27.377 0.441098 27.2278 0.391125C27.1679 0.370714 27.1052 0.360656 27.0421 0.361363H16.7407C16.6158 0.361081 16.494 0.401264 16.3928 0.476136C16.2916 0.551009 16.2163 0.656713 16.1777 0.778047L15.4259 3.12777L15.2817 3.5006ZM12.3552 25.4376C13.3118 23.2046 15.439 22.2083 17.122 22.2483H20.4781C20.6035 22.2481 20.7257 22.2073 20.8271 22.1319C20.9285 22.0565 21.004 21.9503 21.0426 21.8284L24.3742 11.2484C24.398 11.1726 24.4071 11.0928 24.4007 11.0135C24.3944 10.9342 24.3727 10.8569 24.3371 10.7862C24.3015 10.7154 24.2526 10.6525 24.1931 10.601C24.1336 10.5496 24.0648 10.5106 23.9906 10.4863C23.9319 10.4666 23.8706 10.4566 23.8088 10.4565H17.8945C17.6414 10.4565 17.3948 10.5386 17.1903 10.6909C16.9859 10.8432 16.8341 11.0579 16.7569 11.304L14.3489 18.9641L14.3029 19.0699C13.6639 20.6591 11.9164 22.249 9.53 22.249H2.66752C2.41521 22.2487 2.16926 22.3299 1.96491 22.481C1.76056 22.6321 1.60829 22.8454 1.52991 23.0902L0.0294577 27.7897C-0.0194547 27.9421 -0.00709089 28.108 0.0638295 28.2511C0.13475 28.3942 0.25842 28.5026 0.407639 28.5526C0.467248 28.5729 0.529677 28.5832 0.59251 28.5831H10.8962C11.0211 28.5829 11.1428 28.5424 11.2439 28.4674C11.345 28.3925 11.4204 28.2869 11.4593 28.1656L12.211 25.8159L12.3552 25.4376ZM34.8167 18.5726V19.4075C34.8218 21.3698 35.3726 22.799 36.469 23.695C37.5655 24.591 39.3986 25.039 41.9684 25.039H42.1571C44.7064 25.0385 46.5293 24.5905 47.6257 23.695C48.7222 22.7995 49.2704 21.3703 49.2704 19.4075V18.6713C49.2704 17.0714 48.9362 15.8607 48.2678 15.0394C47.5994 14.218 46.4398 13.6261 44.789 13.2638L40.428 12.2722C39.5919 12.0586 39.0485 11.8184 38.7979 11.5516C38.5473 11.2848 38.4221 10.8315 38.4221 10.1919V9.51987C38.4226 8.56066 38.6527 7.91553 39.1124 7.58448C39.5722 7.25343 40.5226 7.0879 41.9638 7.0879H42.1525C43.5721 7.08895 44.5121 7.25447 44.9723 7.58448C45.4326 7.91448 45.6627 8.55961 45.6627 9.51987V10.3485C45.6622 10.5407 45.7668 10.6368 45.9765 10.6368H48.8255C49.0132 10.6368 49.107 10.5407 49.107 10.3485V9.51987C49.1096 7.55759 48.5726 6.12843 47.4961 5.2324C46.4196 4.33637 44.6386 3.88836 42.1532 3.88836H41.9645C39.4791 3.88784 37.6931 4.33585 36.6063 5.2324C35.5196 6.12895 34.9762 7.55811 34.9762 9.51987V10.1919C34.9767 11.7046 35.3058 12.8502 35.9635 13.6288C36.6212 14.4073 37.7754 14.9885 39.4262 15.3723L43.7511 16.3646C44.5658 16.5568 45.1142 16.8126 45.3965 17.1322C45.6788 17.4518 45.82 17.9637 45.82 18.6681V19.4044C45.82 20.3636 45.5796 21.0087 45.0989 21.3398C44.6182 21.6708 43.6363 21.8364 42.1532 21.8364H41.9645C40.461 21.8358 39.4689 21.6703 38.9882 21.3398C38.5075 21.0092 38.2671 20.3641 38.2671 19.4044V18.5726C38.2671 18.3804 38.173 18.2843 37.9848 18.2843H35.1297C34.921 18.2843 34.8167 18.3804 34.8167 18.5726ZM60.7677 22.159V24.6231C60.7677 24.8148 60.6739 24.9108 60.4862 24.9114H58.6367C56.6729 24.9114 55.2783 24.5059 54.4529 23.695C53.6275 22.8841 53.2151 21.4975 53.2156 19.5352V11.5038H51.0531C50.8437 11.5038 50.7394 11.4083 50.7394 11.2156V9.80574C50.7394 9.5927 50.8335 9.47521 51.0217 9.45328L53.2156 9.03738V4.4327C53.2156 4.24002 53.3199 4.14447 53.5286 4.14447H56.3807C56.5686 4.14447 56.6629 4.24002 56.6629 4.4327V8.5596H60.4217C60.6099 8.5596 60.704 8.65568 60.704 8.84784V11.2156C60.704 11.4083 60.6097 11.5038 60.4217 11.5038H56.6629V19.5994C56.6629 20.4531 56.8299 21.045 57.1639 21.375C57.4978 21.705 58.1038 21.8705 58.9819 21.8716H60.4862C60.6744 21.8716 60.7682 21.9674 60.7677 22.159ZM75.7477 24.4954V13.6796C75.7461 11.8452 75.2491 10.4908 74.2564 9.61614C73.2638 8.74152 71.6813 8.30421 69.5089 8.30421H69.3209C67.1695 8.30369 65.5974 8.741 64.6048 9.61614C63.6122 10.4913 63.1158 11.8351 63.1158 13.6475V13.7117C63.1153 13.9039 63.2199 13.9999 63.4296 13.9999H66.2441C66.4318 13.9999 66.5256 13.9039 66.5256 13.7117V13.6475C66.5276 12.858 66.7322 12.298 67.1393 11.9674C67.5464 11.6369 68.2723 11.4716 69.3171 11.4716H69.505C70.5687 11.4716 71.3052 11.6317 71.7143 11.9518C72.1234 12.2719 72.328 12.8478 72.328 13.6796V15.5351H67.8788C65.9989 15.5367 64.6306 15.8842 63.774 16.5776C62.9174 17.271 62.4891 18.3537 62.4891 19.8257V20.3693C62.4891 23.484 64.2859 25.0413 67.8795 25.0413C69.718 25.0413 71.3476 24.5714 72.7683 23.6315L73.3321 24.5588C73.3676 24.6288 73.4218 24.6871 73.4885 24.7267C73.5552 24.7664 73.6316 24.7859 73.7087 24.7828H75.4654C75.6541 24.7828 75.7477 24.6873 75.7477 24.4954ZM72.3326 21.2355C71.1023 21.8053 69.7667 22.0991 68.4157 22.0971C67.4748 22.0966 66.8214 21.9687 66.4558 21.7133C66.0901 21.458 65.9073 21.01 65.9073 20.3693V19.8257C65.9083 19.2477 66.0497 18.8255 66.3315 18.5592C66.6133 18.2929 67.0779 18.1597 67.7253 18.1597H72.3326V21.2355ZM92.0125 13.9036V24.4954C92.0125 24.6871 91.9184 24.7829 91.7302 24.7829H88.8475C88.6598 24.7829 88.5657 24.6871 88.5652 24.4954V14.3195C88.5652 13.1473 88.4189 12.3847 88.1264 12.0317C87.8339 11.6787 87.1959 11.5027 86.2125 11.5038C84.9386 11.5038 83.6118 11.781 82.232 12.3356V24.4954C82.232 24.6871 82.1382 24.7829 81.9505 24.7829H79.0984C78.8898 24.7829 78.7854 24.6871 78.7854 24.4954V8.84781C78.7854 8.65565 78.8898 8.55957 79.0984 8.55957H80.8221C80.8902 8.56281 80.9566 8.58185 81.0165 8.61523C81.0763 8.64862 81.1278 8.69547 81.1673 8.75225L81.7625 9.71172C83.3315 8.77745 85.1173 8.29055 86.9336 8.30189C88.7506 8.30189 90.0511 8.73371 90.835 9.59737C91.619 10.461 92.0115 11.8964 92.0125 13.9036ZM108.026 24.4954V2.67273C108.026 2.48057 107.932 2.38476 107.744 2.38528H104.861C104.672 2.38476 104.578 2.48057 104.578 2.67273V9.48694C103.111 8.69702 101.474 8.29068 99.8154 8.30424C97.9979 8.30372 96.6974 8.73555 95.914 9.59972C95.1305 10.4639 94.7388 11.8985 94.7388 13.9036V19.4419C94.7393 21.4476 95.131 22.8822 95.914 23.7459C96.6969 24.6095 97.9974 25.0413 99.8154 25.0413C101.641 25.0497 103.436 24.5632 105.018 23.6315L105.645 24.591C105.684 24.6476 105.735 24.6944 105.795 24.7276C105.855 24.7609 105.921 24.7798 105.989 24.7829H107.744C107.932 24.7829 108.026 24.6871 108.026 24.4954ZM104.578 21.0084C103.298 21.5557 101.924 21.8384 100.537 21.8402V21.8394C99.5536 21.841 98.9162 21.6658 98.6241 21.3139C98.3321 20.962 98.1861 20.1993 98.1861 19.026V14.3219C98.1856 13.1486 98.3316 12.386 98.6241 12.034C98.9167 11.6821 99.5541 11.5061 100.537 11.5061C101.927 11.5081 103.303 11.8013 104.578 12.3677V21.0084ZM123.758 13.6796V24.4954C123.758 24.687 123.664 24.7828 123.476 24.7828H121.721C121.644 24.7858 121.567 24.7663 121.501 24.7266C121.434 24.687 121.38 24.6288 121.345 24.5588L120.781 23.6315C119.359 24.5714 117.73 25.0413 115.892 25.0413C112.298 25.0413 110.502 23.484 110.502 20.3693V19.8257C110.502 18.3537 110.93 17.271 111.787 16.5776C112.643 15.8842 114.012 15.5374 115.892 15.5374H120.341V13.6796C120.341 12.8478 120.136 12.2719 119.727 11.9518C119.318 11.6317 118.582 11.4716 117.518 11.4716H117.33C116.285 11.4716 115.559 11.6369 115.152 11.9674C114.745 12.298 114.54 12.858 114.538 13.6475V13.7117C114.538 13.9039 114.444 13.9999 114.256 13.9999H111.435C111.227 13.9999 111.122 13.9039 111.122 13.7117V13.6475C111.122 11.8351 111.619 10.4913 112.611 9.61614C113.603 8.741 115.175 8.30369 117.328 8.30421H117.516C119.688 8.30421 121.27 8.74152 122.263 9.61614C123.256 10.4908 123.754 11.8452 123.758 13.6796ZM116.425 22.0971C117.776 22.0991 119.112 21.8053 120.342 21.2355V18.1597H115.735C115.088 18.1597 114.623 18.2929 114.34 18.5592C114.058 18.8255 113.917 19.2477 113.918 19.8257V20.3693C113.918 21.01 114.101 21.458 114.466 21.7133C114.832 21.9687 115.485 22.0966 116.425 22.0971ZM135.23 11.2155V8.59167C135.23 8.40004 135.135 8.30396 134.944 8.30344H134.286C132.719 8.30344 131.361 8.8256 130.212 9.86993L129.554 8.782C129.518 8.71304 129.465 8.65561 129.399 8.61628C129.333 8.57695 129.258 8.55729 129.182 8.55956H127.458C127.249 8.55956 127.145 8.65564 127.145 8.84779V24.4954C127.145 24.687 127.249 24.7829 127.458 24.7829H130.31C130.498 24.7829 130.592 24.687 130.592 24.4954V12.464C131.574 11.8239 132.807 11.5038 134.29 11.5038H134.948C135.136 11.5038 135.23 11.4082 135.23 11.2155ZM149.329 2.67273V24.4954C149.329 24.6871 149.236 24.7829 149.048 24.7829H147.293C147.225 24.78 147.158 24.7611 147.099 24.7279C147.039 24.6946 146.988 24.6478 146.948 24.591L146.321 23.6315C144.74 24.5632 142.945 25.0497 141.119 25.0413C139.301 25.0413 138.001 24.6095 137.218 23.7459C136.435 22.8822 136.043 21.4476 136.043 19.4419V13.9036C136.043 11.8985 136.434 10.4639 137.218 9.59972C138.001 8.73555 139.302 8.30372 141.119 8.30424C142.778 8.29112 144.415 8.69771 145.883 9.48772V2.67273C145.883 2.48057 145.977 2.38476 146.164 2.38528H149.048C149.236 2.38476 149.329 2.48057 149.329 2.67273ZM141.839 21.8402C143.228 21.8384 144.602 21.5557 145.883 21.0084V12.3677C144.607 11.8013 143.231 11.5081 141.839 11.5061C140.858 11.5061 140.22 11.6821 139.928 12.034C139.635 12.386 139.489 13.1486 139.489 14.3219V19.026C139.489 20.1993 139.635 20.962 139.928 21.3139C140.22 21.6658 140.858 21.841 141.839 21.8394V21.8402ZM178.051 24.4955V4.4327C178.051 4.23924 177.946 4.14447 177.739 4.14447H174.731C174.603 4.14447 174.488 4.22984 174.386 4.40059L169.937 14.2875C169.352 15.5464 168.913 16.6771 168.621 17.6797C168.227 16.5266 167.777 15.3945 167.273 14.2875L162.824 4.40059C162.719 4.22984 162.593 4.14447 162.448 4.14447H159.471C159.261 4.14447 159.157 4.24002 159.157 4.4327V24.4955C159.156 24.6871 159.261 24.7829 159.471 24.7829H162.225C162.413 24.7829 162.508 24.6871 162.508 24.4955V16.2714C162.508 14.2245 162.445 12.1234 162.32 9.96788C162.99 12.1198 163.796 14.2254 164.732 16.2714L167.02 21.3272C167.04 21.4549 167.145 21.5191 167.333 21.5191H169.837C169.906 21.5206 169.974 21.5037 170.034 21.47C170.095 21.4364 170.146 21.3871 170.182 21.3272L172.469 16.2714C173.405 14.2252 174.211 12.1197 174.882 9.96788C174.757 12.1228 174.694 14.224 174.694 16.2714V24.4955C174.694 24.6871 174.788 24.7829 174.976 24.7829H177.737C177.946 24.7829 178.051 24.6874 178.051 24.4955ZM194.316 17.4878H184.631V19.5352C184.631 20.4312 184.851 21.0552 185.29 21.4072C185.728 21.7591 186.574 21.9351 187.828 21.9351H188.016C189.29 21.9351 190.141 21.7646 190.57 21.4236C190.999 21.0826 191.213 20.4532 191.212 19.5352V19.5031C191.212 19.3115 191.317 19.2156 191.526 19.2156H194.315C194.523 19.2156 194.628 19.3112 194.628 19.5031V19.5352C194.628 21.4348 194.111 22.8269 193.077 23.7115C192.043 24.596 190.356 25.0385 188.014 25.0391H187.826C185.486 25.0391 183.799 24.5965 182.764 23.7115C181.728 22.8264 181.211 21.4343 181.212 19.5352V13.8081C181.212 11.9096 181.729 10.5175 182.764 9.63189C183.798 8.74631 185.485 8.30247 187.826 8.30038H188.014C190.354 8.30038 192.042 8.74422 193.077 9.63189C194.113 10.5196 194.63 11.9116 194.628 13.8081V17.1675C194.629 17.3813 194.527 17.4878 194.316 17.4878ZM184.632 13.8066V14.9258H191.213V13.8081C191.213 12.8907 190.999 12.2612 190.571 11.9197C190.143 11.5782 189.292 11.4078 188.017 11.4083H187.829C186.574 11.4083 185.728 11.5843 185.29 11.9362C184.853 12.2881 184.633 12.9121 184.631 13.8081L184.632 13.8066ZM206.255 24.6231V22.159C206.256 21.9674 206.162 21.8716 205.974 21.8716H204.469C203.592 21.8705 202.986 21.705 202.651 21.375C202.317 21.045 202.15 20.4531 202.15 19.5994V11.5038H205.909C206.096 11.5038 206.191 11.4083 206.191 11.2156V8.84784C206.19 8.65568 206.096 8.5596 205.909 8.5596H202.15V4.4327C202.15 4.24002 202.056 4.14447 201.868 4.14447H199.016C198.807 4.14447 198.703 4.24002 198.703 4.4327V9.03738L196.509 9.45328C196.321 9.47521 196.227 9.5927 196.227 9.80574V11.2156C196.227 11.4083 196.331 11.5038 196.541 11.5038H198.703V19.5352C198.703 21.4975 199.115 22.8841 199.94 23.695C200.766 24.5059 202.16 24.9114 204.124 24.9114H205.974C206.161 24.9108 206.255 24.8148 206.255 24.6231ZM216.942 8.59174V11.2156C216.942 11.4083 216.847 11.5038 216.659 11.5038H216.001C214.518 11.5038 213.285 11.8239 212.303 12.4641V24.4955C212.303 24.6871 212.209 24.7829 212.021 24.7829H209.169C208.961 24.7829 208.856 24.6874 208.856 24.4955V8.84786C208.856 8.65596 208.961 8.55963 209.169 8.55963H210.893C210.97 8.55683 211.046 8.57648 211.113 8.61628C211.18 8.65609 211.234 8.7144 211.269 8.78442L211.927 9.87234C213.076 8.82802 214.434 8.30586 216.001 8.30586H216.659C216.848 8.30481 216.942 8.40011 216.942 8.59174ZM219.198 2.96024V6.16057C219.198 6.3522 219.302 6.44802 219.511 6.44802H222.363C222.551 6.44854 222.645 6.35272 222.645 6.16057V2.96024C222.645 2.76808 222.551 2.67201 222.363 2.67201H219.511C219.302 2.67253 219.198 2.7686 219.198 2.96024ZM219.198 8.84787V24.4955C219.198 24.6871 219.302 24.7829 219.511 24.7829H222.363C222.551 24.7829 222.645 24.6871 222.645 24.4955V8.84787C222.645 8.65571 222.551 8.55964 222.363 8.55964H219.511C219.302 8.55964 219.198 8.65571 219.198 8.84787ZM225.528 19.5031V13.8395C225.528 11.92 226.039 10.5175 227.062 9.63189C228.085 8.74631 229.746 8.30247 232.044 8.30038H232.233C234.531 8.30038 236.193 8.74422 237.219 9.63189C238.246 10.5196 238.757 11.9221 238.753 13.8395V14.1919C238.753 14.405 238.648 14.5115 238.44 14.5115H235.588C235.401 14.5115 235.307 14.405 235.306 14.1919V13.8395C235.306 12.9873 235.087 12.3847 234.648 12.0317C234.209 11.6788 233.405 11.5028 232.235 11.5038H232.047C230.877 11.5038 230.073 11.6798 229.634 12.0317C229.195 12.3837 228.976 12.9863 228.976 13.8395V19.5031C228.976 20.3991 229.19 21.0124 229.618 21.3429C230.046 21.6735 230.856 21.839 232.047 21.8395H232.235C233.426 21.8395 234.235 21.674 234.664 21.3429C235.093 21.0119 235.307 20.3986 235.306 19.5031V19.1514C235.306 18.9384 235.4 18.8311 235.588 18.8311H238.44C238.648 18.8311 238.753 18.9384 238.753 19.1514V19.5031C238.753 21.4236 238.247 22.8264 237.234 23.7115C236.221 24.5965 234.555 25.0391 232.235 25.0391H232.047C229.728 25.0391 228.062 24.5965 227.048 23.7115C226.035 22.8264 225.528 21.4236 225.528 19.5031ZM240.539 19.5351V20.4633C240.539 23.5137 242.679 25.039 246.961 25.039H247.149C251.369 25.039 253.479 23.5137 253.479 20.4633V20.0474C253.479 18.8741 253.213 17.9621 252.68 17.3115C252.147 16.6609 251.233 16.1544 249.938 15.792L245.77 14.6399C245.122 14.448 244.695 14.2553 244.485 14.0634C244.276 13.8715 244.172 13.6052 244.172 13.2637V12.8478C244.174 12.335 244.379 11.9669 244.786 11.7434C245.193 11.5199 245.898 11.4082 246.902 11.4082H247.089C248.949 11.4077 249.879 11.8875 249.879 12.8478V13.8073C249.879 13.9989 249.983 14.0947 250.192 14.0947H252.981C253.169 14.0947 253.263 13.9992 253.263 13.8073V12.847C253.263 9.81848 251.205 8.30421 247.089 8.30421H246.902C244.771 8.30369 243.215 8.68225 242.232 9.43991C241.25 10.1976 240.759 11.3335 240.759 12.8478V13.2637C240.759 14.3722 241.036 15.2628 241.589 15.9353C242.143 16.6079 243.067 17.1253 244.363 17.4877L248.531 18.6712C249.156 18.8414 249.573 19.0174 249.782 19.1991C249.991 19.3808 250.096 19.6636 250.096 20.0474V20.4633C250.097 20.9755 249.877 21.3488 249.438 21.5833C248.998 21.8177 248.235 21.935 247.15 21.935H246.965C245.858 21.935 245.074 21.8177 244.614 21.5833C244.154 21.3488 243.924 20.9755 243.924 20.4633V19.5351C243.923 19.3221 243.829 19.2156 243.641 19.2156H240.821C240.633 19.2156 240.539 19.3221 240.539 19.5351Z" fill="#F5F7FA"></path>
</svg>
