<svg width="100" height="20" viewBox="0 0 100 20" fill="none" xmlns="http://www.w3.org/2000/svg">
<path d="M15.3725 2.94296H9.45766V19.129H6.62881V2.94296H0.746094V0.445312H15.3725V2.94296Z" fill="white"/>
<path d="M16.625 0.25H19.2931V8.09974H19.486C20.3861 6.38059 22.0898 5.37504 24.1472 5.37504C27.1046 5.37504 29.0334 7.32126 29.0334 10.792V19.1283H26.3652V11.2137C26.3652 8.81336 25.1758 7.7105 23.2149 7.7105C20.8361 7.7105 19.2931 9.4621 19.2931 12.0571V19.0959H16.625V0.25Z" fill="white"/>
<path d="M30.6426 12.4126C30.6426 8.16339 33.3428 5.40625 37.2968 5.40625C41.2508 5.40625 43.5653 7.83902 43.5653 11.472C43.5653 11.991 43.5331 12.4775 43.4367 12.9965H33.3428C33.2786 15.7536 34.918 17.2457 37.3611 17.2457C39.2899 17.2457 40.6721 16.3375 40.9936 15.0076H43.6617C43.2117 17.635 40.7043 19.3866 37.3289 19.3866C33.375 19.3866 30.6426 16.6294 30.6426 12.4126ZM40.865 11.0503C40.865 8.81213 39.5149 7.54709 37.2325 7.54709C35.0144 7.54709 33.4393 8.94188 33.3428 11.0503H40.865Z" fill="white"/>
<path d="M56.3581 19.3866C52.2755 19.3866 49.6074 16.597 49.6074 12.4126C49.6074 8.22827 52.2755 5.40625 56.4224 5.40625C59.7656 5.40625 62.2087 7.32003 62.5301 10.2069H59.8299C59.4441 8.5202 57.9975 7.74171 56.3581 7.74171C53.7221 7.74171 52.372 9.65549 52.372 12.4451C52.372 15.4617 53.9471 17.0511 56.3259 17.0511C58.2547 17.0511 59.6691 16.0131 59.862 14.4237H62.5944C62.3051 17.4079 59.7656 19.3866 56.3581 19.3866Z" fill="white"/>
<path d="M70.5348 5.375C74.5852 5.375 77.3176 8.22945 77.3176 12.3814C77.3176 16.5333 74.6173 19.3878 70.5348 19.3878C66.4522 19.3878 63.752 16.5333 63.752 12.4138C63.752 8.29433 66.4844 5.375 70.5348 5.375ZM70.5026 17.0199C72.9779 17.0199 74.553 15.2683 74.553 12.3489C74.553 9.5918 73.0743 7.71046 70.5026 7.71046C68.0595 7.71046 66.4844 9.49449 66.4844 12.3814C66.5165 15.2034 67.9631 17.0199 70.5026 17.0199Z" fill="white"/>
<path d="M78.6689 5.63373H80.9834L81.337 8.13137H81.5299C82.2692 6.41222 83.973 5.30936 85.8374 5.37423C87.6698 5.3418 89.2771 6.50953 89.8557 8.22869H90.1129C90.9165 6.31491 92.7167 5.3418 94.6454 5.3418C97.6029 5.3418 99.3066 7.48264 99.3066 10.8561V19.0951H96.6385V11.1804C96.6385 8.81255 95.6098 7.70969 93.7453 7.70969C91.3987 7.70969 90.3379 9.46129 90.3379 11.8616V19.1275H87.6376V11.148C87.6376 8.81255 86.6089 7.70969 84.7766 7.70969C82.655 7.70969 81.3048 9.39642 81.3048 11.8292V19.1275H78.6367L78.6689 5.63373Z" fill="white"/>
<path d="M46.9724 19.1293C47.8956 19.1293 48.644 18.3741 48.644 17.4426C48.644 16.511 47.8956 15.7559 46.9724 15.7559C46.0492 15.7559 45.3008 16.511 45.3008 17.4426C45.3008 18.3741 46.0492 19.1293 46.9724 19.1293Z" fill="white"/>
</svg>
