<svg width="149" height="133" viewBox="0 0 149 133" fill="none" xmlns="http://www.w3.org/2000/svg">
<path fill-rule="evenodd" clip-rule="evenodd" d="M39.6519 49.0816L83.9616 23.4994L109.544 67.809L65.2341 93.3912L39.6519 49.0816ZM51.0713 50.3668C49.9119 51.0362 49.5147 52.5188 50.1841 53.6782L66.5194 81.9718C67.1888 83.1312 68.6713 83.5285 69.8307 82.8591L98.1244 66.5237C99.2838 65.8544 99.681 64.3718 99.0116 63.2124L82.6763 34.9188C82.0069 33.7594 80.5244 33.3621 79.365 34.0315L51.0713 50.3668Z" fill="white"/>
<path fill-rule="evenodd" clip-rule="evenodd" d="M62.4268 88.5291L106.736 62.9469L127.77 99.3783C130.282 103.729 128.791 109.293 124.44 111.805L95.8873 128.29C91.5362 130.802 85.9726 129.312 83.4605 124.961L62.4268 88.5291ZM73.8462 89.8144C72.6868 90.4838 72.2896 91.9663 72.959 93.1258L89.3692 121.549C89.9972 122.637 91.3881 123.01 92.4759 122.382L121.029 105.896C122.117 105.268 122.489 103.877 121.861 102.79L105.451 74.3664C104.782 73.2069 103.299 72.8097 102.14 73.4791L73.8462 89.8144Z" fill="white"/>
<path fill-rule="evenodd" clip-rule="evenodd" d="M44.6173 46.2145L70.1995 90.5242L33.7682 111.558C29.4171 114.07 23.8534 112.579 21.3413 108.228L4.85621 79.675C2.34412 75.3239 3.83491 69.7603 8.18597 67.2482L44.6173 46.2145ZM11.5974 73.1569C10.5096 73.7849 10.1369 75.1758 10.7649 76.2636L27.2501 104.817C27.8781 105.904 29.269 106.277 30.3568 105.649L58.7801 89.2389C59.9395 88.5695 60.3368 87.087 59.6674 85.9276L43.3321 57.634C42.6627 56.4745 41.1801 56.0773 40.0207 56.7467L11.5974 73.1569Z" fill="white"/>
<path fill-rule="evenodd" clip-rule="evenodd" d="M78.9962 26.366L117.008 4.41986C120.486 2.4117 124.934 3.60343 126.942 7.08167L144.34 37.2151C146.852 41.5662 145.361 47.1299 141.01 49.642L104.578 70.6756L78.9962 26.366ZM90.4156 27.6512C89.2562 28.3206 88.859 29.8032 89.5284 30.9626L105.864 59.2562C106.533 60.4156 108.016 60.8129 109.175 60.1435L137.598 43.7332C138.686 43.1052 139.059 41.7143 138.431 40.6265L122.021 12.2032C121.351 11.0438 119.869 10.6465 118.709 11.3159L90.4156 27.6512Z" fill="white"/>
</svg>
