<svg width="20" height="20" viewBox="0 0 20 20" fill="none" xmlns="http://www.w3.org/2000/svg">
<path d="M18.4696 1.77605e-05H1.52957C1.33915 -0.00262686 1.15007 0.0322653 0.973136 0.102702C0.796201 0.173138 0.634874 0.277738 0.498368 0.41053C0.361862 0.543321 0.252852 0.701702 0.177562 0.876627C0.102273 1.05155 0.0621787 1.2396 0.0595703 1.43002V18.57C0.0621787 18.7604 0.102273 18.9485 0.177562 19.1234C0.252852 19.2983 0.361862 19.4567 0.498368 19.5895C0.634874 19.7223 0.796201 19.8269 0.973136 19.8973C1.15007 19.9678 1.33915 20.0027 1.52957 20H18.4696C18.66 20.0027 18.8491 19.9678 19.026 19.8973C19.2029 19.8269 19.3643 19.7223 19.5008 19.5895C19.6373 19.4567 19.7463 19.2983 19.8216 19.1234C19.8969 18.9485 19.937 18.7604 19.9396 18.57V1.43002C19.937 1.2396 19.8969 1.05155 19.8216 0.876627C19.7463 0.701702 19.6373 0.543321 19.5008 0.41053C19.3643 0.277738 19.2029 0.173138 19.026 0.102702C18.8491 0.0322653 18.66 -0.00262686 18.4696 1.77605e-05ZM6.08957 16.74H3.08957V7.74002H6.08957V16.74ZM4.58957 6.48002C4.17583 6.48002 3.77904 6.31566 3.48648 6.0231C3.19393 5.73055 3.02957 5.33376 3.02957 4.92002C3.02957 4.50628 3.19393 4.10949 3.48648 3.81693C3.77904 3.52437 4.17583 3.36002 4.58957 3.36002C4.80927 3.3351 5.03175 3.35687 5.24245 3.4239C5.45314 3.49093 5.64731 3.60171 5.81223 3.74898C5.97715 3.89625 6.1091 4.0767 6.19944 4.2785C6.28979 4.4803 6.33649 4.69891 6.33649 4.92002C6.33649 5.14112 6.28979 5.35973 6.19944 5.56154C6.1091 5.76334 5.97715 5.94378 5.81223 6.09106C5.64731 6.23833 5.45314 6.3491 5.24245 6.41613C5.03175 6.48316 4.80927 6.50493 4.58957 6.48002ZM16.9096 16.74H13.9096V11.91C13.9096 10.7 13.4796 9.91002 12.3896 9.91002C12.0522 9.91249 11.7238 10.0183 11.4484 10.2132C11.1731 10.4081 10.9641 10.6827 10.8496 11C10.7713 11.2351 10.7374 11.4826 10.7496 11.73V16.73H7.74957C7.74957 16.73 7.74957 8.55002 7.74957 7.73002H10.7496V9.00002C11.0221 8.52712 11.4185 8.13754 11.896 7.87322C12.3735 7.6089 12.9141 7.47987 13.4596 7.50002C15.4596 7.50002 16.9096 8.79002 16.9096 11.56V16.74Z" fill="black" fill-opacity="0.75"/>
</svg>
